<svg fill="none" viewBox="0 0 251 251" xmlns="http://www.w3.org/2000/svg"><g clip-rule="evenodd" fill="#212429" fill-rule="evenodd"><path d="m38.5 193c-1.42 0.583-2.63 1.57-3.48 2.85-0.852 1.27-1.31 2.77-1.3 4.3v22.6h-22.8v-22.7c4e-4 -2.04 0.812-4 2.26-5.45 1.45-1.44 3.41-2.26 5.45-2.26h19.9v0.713z"/>
<path d="m35.5 197c-1.32 2.51-0.95 2.93-0.837 10.6 0.0109 1.31 0.0779 15.6-0.0276 16-0.0557 0.169-0.157 0.319-0.293 0.434-0.462 0.329 1.55 0.223-23.4 0.223-0.227-2e-3 -0.446-0.083-0.619-0.231-0.173-0.147-0.288-0.351-0.325-0.575-0.0167-0.209-0.0284-23 0.0109-23.6 0.131-1.6 0.703-3.13 1.65-4.42 0.951-1.29 2.24-2.29 3.73-2.89 2.18-0.836 2.52-0.617 13.6-0.491 10.4 0.149 9.61 0.105 9.86 0.224 0.0929 0.054 0.17 0.132 0.222 0.226 0.0523 0.094 0.0783 0.2 0.0753 0.307-0.0092 0.809-0.0051 0.67-0.0159 0.813-0.0171 0.099-0.0589 0.192-0.121 0.271-0.0626 0.079-0.144 0.141-0.237 0.18l-0.0076-9e-3c-1.36 0.599-2.49 1.61-3.24 2.89zm-7.01-3.54v0.149l-9.88 0.115c-1.56 0.019-3.07 0.572-4.27 1.57-1.2 0.995-2.03 2.37-2.34 3.9-0.172 0.921-0.139-0.995-0.139 23.2h20.9c0-22.2-0.0109-23.1 0.855-24.9 0.758-1.71 2.06-3.12 3.7-4.01l-8.85 4e-3z"/><path d="m160 78 0.351 0.266c0.167 0.89 0.072-0.0903-0.32 3.06-0.325 2.1-0.52 5.75-0.547 6.07-0.418 7.44 0.683 15.5 7.46 18.6 1.87 0.798 2.3 0.547 2.8 1.06 0.303 0.467 0.179 0.207 0.231 3.27 0 4.08 0.293 11.4 0.282 11.7-0.018 0.162-0.092 0.312-0.209 0.426-0.116 0.113-0.269 0.183-0.431 0.196-0.942 0.091-1.88 0.245-2.8 0.46l-0.455-0.095-0.262-0.371v-7e-3l0.088-0.444 0.382-0.271c0.753-0.18 1.45-0.405 2.24-0.56 0-0.097-0.802-6.98-0.802-13-3.74-0.984-6.72-3.44-8.6-7.6-0.988-2.25-1.59-4.66-1.78-7.11-0.32-3.18-0.226-6.39 0.278-9.55 0.315-1.95 0.771-3.88 1.36-5.76l0.285-0.361 0.431-0.0753 8e-3 -0.0042z"/><path d="m191 82.7c1.26 0.361 2.37 1.1 3.19 2.13 0.815 1.02 1.29 2.27 1.36 3.58 0.011 0.293 2e-3 0.586-0.027 0.877-0.098 0.929-0.403 1.82-0.894 2.62-1.83 2.69-4.4 3.59-7.61 4.07-0.968 3.42-2.19 6.75-3.67 9.98 0.101 4.67 0.025 7.82 0.312 13.7 0.847 0.101 1.65 0.243 2.48 0.406 1.02 0.204 0.768 0.118 1.25 0.434l0.108 0.443c-7e-3 9e-3 -0.251 0.376-0.251 0.386-0.3 0.125-0.636 0.139-0.945 0.039-3.46-0.472-3.35-0.161-3.81-0.479-0.281-0.266-0.281-0.117-0.739-5.54-0.355-5.26-0.277-6.1-0.348-9.16-0.068-0.365 1e-3 -0.742 0.194-1.06 1.51-3.27 2.74-6.67 3.66-10.1 0.251-1.06 0.921-0.721 2.72-1.1 1.67-0.285 3.22-1.07 4.44-2.25 0.423-0.464 0.742-1.01 0.938-1.61 0.195-0.597 0.262-1.23 0.196-1.85-0.067-0.624-0.264-1.23-0.581-1.77-0.316-0.542-0.743-1.01-1.25-1.38-0.774-0.592-1.68-0.996-2.63-1.18-0.789-0.171-1.59-0.279-2.4-0.322l-0.418-0.195-0.167-0.404v-0.0067l0.18-0.402 0.419-0.186c1.44-0.113 2.89 0.0253 4.28 0.408zm-9.31 22.3-0.031 0.039-0.011 0.01 0.057-0.061-0.015 0.012zm0.083-0.076c-0.096 0.084-0.03 0.027 0.066-0.049l-0.066 0.049z"/><path d="m166 81.9 0.304 0.266 0.108 0.464c0 3.2-0.867 3.61-0.678 9.68 2.67-0.0226 2.1-0.142 2.84 0.11l0.227 0.371v0.0059l-0.13 0.418-0.41 0.259c-1.08 0.301-2.18 0.537-3.29 0.706-0.253 0.04-0.511-0.02-0.72-0.167-0.129-0.0995-0.232-0.228-0.301-0.375-0.365-1.12-0.251-6.73 0.474-9.37 0-0.0686 0.408-1.07 0.408-1.08 0.034-0.0687 0.385-0.803 0.428-0.874l0.334-0.342 0.394-0.0711 4e-3 -0.0067z"/><path d="m177 94c0.263 0.402 0.328 0.325 0.466 1.61 0.118 1.28-0.263 2.56-1.06 3.58-0.552 0.761-1.35 1.3-2.26 1.54-0.748 0.175-1.53 0.138-2.26-0.107-0.728-0.245-1.37-0.688-1.86-1.28-0.244-0.338-0.432-0.713-0.559-1.11 0-0.604-0.084-0.368 0.2-0.818 1.37 0.335 0.401 0.077 1.76 0.824 0.462 0.316 0.984 0.533 1.53 0.637 0.437 0.0317 0.874-0.0669 1.26-0.283 0.381-0.216 0.69-0.541 0.887-0.932 0.523-0.909 0.848-1.92 0.956-2.96 0.011-0.191-0.023-0.0586 0.173-0.597l0.362-0.226 0.413 0.133z"/><path d="m177 77.4c0.479 0.33 0.902 0.733 1.26 1.2 0.232 0.248 0.381 0.564 0.423 0.901l-0.15 0.389-8e-3 0.0041-0.392 0.12c-0.282-0.0595-0.547-0.182-0.775-0.358-0.498-0.281-1.02-0.519-1.56-0.712-0.416-0.211-0.869-0.336-1.33-0.369-0.465-0.0329-0.931 0.0274-1.37 0.177-0.119 0.0474-0.235 0.103-0.347 0.167-0.09 0.0528-0.176 0.112-0.258 0.176 0 0-0.56 0.292-0.698 0.373-0.514 0.263 0.091 0.114-1.14 0.376-0.167-0.791-0.283-0.803 0.104-1.57 0.214-0.444 0.566-0.807 1-1.03 0.196-0.116 0.401-0.217 0.613-0.3 0.757-0.276 1.57-0.378 2.37-0.298 0.803 0.0796 1.58 0.338 2.27 0.758z"/></g><path d="m174 87.5c0.977 0 1.77-1.04 1.77-2.31 0-1.28-0.792-2.31-1.77-2.31-0.976 0-1.77 1.04-1.77 2.31 0 1.28 0.792 2.31 1.77 2.31z" fill="#212429"/><g clip-rule="evenodd" fill-rule="evenodd"><g fill="#212429"><path d="m191 83.6c1.24-7.04 2.08-16.4-5.24-20.4-2.9-1.6-6.16-2.02-9.29-2.98-2.2-4.5-6.9-11.5-11.7-12.8-2.82-0.707-5.78-0.523-8.48 0.526-2.71 1.05-5.02 2.91-6.62 5.33-4.15 6.16-3.18 15 4.06 18.3 5.63 2.53 13.8 1.72 19.9 0.516 1.88-0.369 3.65 1.16 5.48 1.72 0.96 4.64 3.76 7.8 8.33 8.94 1.3 0.325 3.63 0.885 3.63 0.885z"/><path d="m165 46.5c5.17 1.39 9.81 8.18 12.2 13 3.78 1.04 7.16 1.57 10.1 3.6 6.48 4.65 5.76 12.9 4.3 20.7-0.096-0.0167-1.29-0.226 7e-3 0-0.02 0.114-0.072 0.22-0.151 0.306-0.079 0.0854-0.18 0.146-0.292 0.176-0.222 0.0394 0.073 0.0912-2.82-0.575-1.68-0.287-3.3-0.874-4.77-1.73-2.89-1.81-4.35-4.25-5.21-7.48-1.4-0.502-2.8-1.47-4.05-1.53-1.04-0.046-15.4 3.96-23.4-1.86-6.48-5.02-5.72-14.6-0.813-19.9 1.8-2.07 4.14-3.61 6.77-4.43s5.42-0.907 8.08-0.239zm-6.61 1.84c-8.79 2.29-12.2 11.9-8.97 17.9 2.88 6.08 12.1 6.47 18.8 5.77 5.2-0.575 5.22-1.03 6.72-0.802 1.62 0.288 2.77 1.19 4.37 1.78 0.967 0.3 0.335 0.822 1.56 3.57 0.392 0.859 0.902 1.66 1.51 2.38 2.27 2.64 5.1 3.14 8.24 3.93 0-0.697 1.62-8.28-0.648-13.7-0.602-1.52-1.57-2.86-2.81-3.92-2.86-2.45-6.92-2.94-10.6-4.02-1.2-0.362-0.407-0.199-2.93-4.27-2.02-3.13-5.38-7.54-8.95-8.61-2.05-0.579-4.22-0.61-6.29-0.0912l-1e-3 -0.0033z"/><path d="m91.6 29.8c5.75 2.36 10.9 6.02 15 10.7s7.07 10.2 8.67 16.2c1.76 5.85 2.16 12 1.18 18s-3.33 11.7-6.86 16.7c-3.64 5.15-8.45 9.35-14 12.3-2.76 1.46-5.68 2.6-8.7 3.38-5.49 1.44-11.2 1.72-16.8 0.836-5.6-0.89-11-2.93-15.7-6-29.9-20-22.1-63 9.09-73.2 9.22-3.07 19.2-2.71 28.2 1.02zm-21.6 0.562c-6.17 1.07-12 3.66-16.9 7.54-4.92 3.88-8.8 8.92-11.3 14.7-2.48 5.75-3.5 12-2.95 18.3s2.64 12.2 6.09 17.5c3.45 5.23 8.15 9.51 13.7 12.5 5.52 2.96 11.7 4.49 18 4.47s12.4-1.61 17.9-4.61c5.5-3 10.2-7.32 13.6-12.6 3.03-4.55 5.06-9.7 5.93-15.1 0.876-5.4 0.586-10.9-0.852-16.2l-0.015 0.0051c-5.76-18.7-24.7-29.9-43.1-26.4zm45.3 26.4c-0.178-0.577-0.162-0.532 0 0z"/>
<path d="m74.9 52.2c0.267 2.13 1.11 12.7 1.14 13.1 0.0837 1.06 0.212 3.15 0.213 3.16 2.46 0.185 8.66-0.15 12.5-0.131 1.07 0.0076 0.804-0.0284 1.34 0.188l0.192 0.408v0.0058l-0.167 0.418c-0.664 0.318 0.0928 0.115-3.09 0.449-4.4 0.463-7.43 0.859-11.6 0.56-0.195 0.0179-0.39-0.0189-0.565-0.106-0.175-0.0871-0.322-0.221-0.425-0.388-0.15-0.303-0.117-0.208-0.208-1.77-0.534-9.18-1.38-12.6-1.13-19.7 0.0176-0.434-0.0292-0.232 0.192-0.766l0.389-0.192h0.0042c0.733 0.285 0.527-0.151 1.17 4.71z"/><path d="m48.1 67.4c0.406 0.053 0.808 0.135 1.2 0.246 0.241 0.0611 0.0895 0 0.655 0.283l0.212 0.339c-0.223 0.443-0.0837 0.295-0.628 0.634-0.425 0.163-0.862 0.293-1.31 0.388-0.313 0.0523-0.631 0.0736-0.948 0.0636-2.52 0.107-2.11 0.301-2.85 0.0426-0.376-0.124-0.126 0.0101-0.983-0.558 0.551-0.823 0.394-0.646 0.713-0.894 0.205-0.162 0.441-0.28 0.694-0.348 1.08-0.136 2.16-0.201 3.24-0.197z"/><path d="m108 65.6c0.289-0.0132 0.578 0.0207 0.856 0.1 0.066 0.0159 0.397 0.116 0.435 0.13 0.565 0.201 0.282 0.0184 1.08 0.719-0.698 0.738-0.488 0.604-1.06 0.807-0.829 0.33-1.82 0.1-3.29 0.178-0.241 0.0246-0.484-0.0384-0.682-0.177-0.317-0.151-0.07 0.0084-0.906-0.595 0.573-0.802 0.445-0.656 0.706-0.855 0.209-0.198 0.486-0.311 0.774-0.315 0.751-0.0359 1.28-0.0175 2.08 0.0084z"/>
<path d="m73.4 34.3c0.171 0.259 0.314 0.535 0.428 0.824 0.071 0.398 0.121 0.799 0.15 1.2 0.202 1.94 0.489 2.93-0.108 4.52l-0.32 0.251h-0.0109l-0.366-0.167-0.312-0.467c-0.202-0.479-0.374-0.97-0.516-1.47-0.0836-0.377-0.385-3.12-0.385-3.22-0.0607-0.321-0.0288-0.652 0.092-0.955 0.269-0.586-0.115-0.0946 0.698-1.06l0.65 0.538z"/><path d="m77 101c-0.386-0.657-0.604-1.4-0.636-2.16-0.309-1.97-0.266-1.54-0.115-2.11 0.201-0.47 0.0619-0.218 0.655-0.993 0.39 0.232 0.726 0.546 0.982 0.92 0.191 0.279 0.147 0.228 0.27 1.01 0.279 1.94 0.379 1.99 0.181 3.01-0.077 0.392 0 0.215-0.578 1.05-0.807-0.673-0.666-0.528-0.759-0.716z"/></g><path d="m172 169s-0.1 7.37-0.285 10.7c8.21 1.46 16.3 3.45 24.5 4.99 2.34 0.44 4.65 1.64 7.02 1.33 12.6-1.69 25.4-1.72 38.1-2.3 0.494-0.024 0.977-0.154 1.42-0.381s0.826-0.545 1.13-0.933c0.307-0.389 0.527-0.838 0.645-1.32 0.119-0.48 0.133-0.98 0.042-1.47-1.72-9.19-4.03-18.2-8.44-26.6-8.64-16.4-25.3-28.9-43.8-31.9-0.263-0.042-0.532-0.011-0.779 0.088-0.247 0.1-0.463 0.265-0.623 0.478-3.85 5.07-9.56 10.1-15.9 11.3-3.76 0.678-10.1 0.12-11.8-4-0.637-1.71-0.75-3.57-0.327-5.34 0.046-0.244 0.03-0.496-0.048-0.732s-0.214-0.448-0.396-0.617-0.404-0.289-0.645-0.349-0.494-0.058-0.734 6e-3c-10.4 2.82-20.2 7-28.9 13.4-3.11 2.29-6.57 4.8-9.08 7.77 1.06 0.88 1.88 2.02 2.38 3.3 0.5 1.28 0.665 2.68 0.479 4.04 1.74 1.85 2.62 4.28 1.61 6.72 3.96 6.49-4.18 12-9.08 14.8 4.2 8.12 14.2 23.2 14.3 23.6 0.047 0.119 1.32 26.3 1.36 26.4 9e-3 8e-3 0.019 0.014 0.03 0.017s0.023 4e-3 0.035 3e-3c7.54-0.764 15.2 0.162 22.7 0.01 11-0.221 22.3-0.663 33.2-0.683 0.022 3e-3 0.045-3e-3 0.062-0.017 0.018-0.014 0.029-0.034 0.032-0.057 2e-3 -0.022-4e-3 -0.044-0.018-0.062-0.014-0.017-0.034-0.028-0.057-0.031-7.55-2-18-5.37-24-10.2-5.61 2.16-12.3 1.14-17.8-1.11-3.96-1.63-6.97-5.9-0.933-7.27-2.64-2.3-5.55-6.76-0.444-7.93-2.94-2.44-7.29-8.86-0.82-9.99-0.753-4.35-1.85-8.8-3.03-13.1-8.44-0.787-7.88-6.23-4.77-7.53 4.53-1.89 11.1-0.758 16-0.776-0.435-2.47-0.844-4.96-1.1-7.46-0.083-0.843-0.346-2.14 0.236-2.88 1.24-1.56 4.05-1.83 5.81-2.34 5.02-1.44 10.6-3.87 15.9-3.36 2.23 0.214 4.37 1.9 2.3 3.99-1.22 1.23-3.22 1.65-4.82 2.14-1.66 0.511-3.27 1.17-4.93 1.68-2.57 0.793-5.18 1.32-7.79 1.92 0.098 1.93 0.314 3.85 0.647 5.76 4.08-0.191 8.17-0.023 12.2 0.502 1.71 0.075 3.4 0.383 5.03 0.916 1.74 0.734 2.44 2.86 0.494 3.85-1.9 0.974-4.37 0.96-6.49 0.958z" fill="#FD710F"/><g fill="#212429"><path d="m172 181c2.35-0.027 4.7 0.162 7.02 0.563 8.83 1.43 23 5.03 25.7 5.61 0-0.797-0.06-0.502 0.154-1.08l0.4-0.206h9e-3l0.423 0.151c0.298 0.572 0.191 0.261 0.289 1.1 0.065 0.826 0.18 1.26-0.389 1.52-0.233 0.064-0.084 0.07-1.71-0.149-9.66-1.35-16.6-3.79-26.8-5.26-1.06-0.154-4.01-0.721-6.02-1.02-0.181-0.027-0.078 0.013-0.543-0.246l-0.147-0.407v-7e-3l0.201-0.384c0.539-0.21 0.231-0.176 1.4-0.172z"/><path d="m206 187c0.344 0.02 2.74 0.58 3.31 0.721 0.654 0.131 1.29 0.36 1.87 0.679 0.397 0.156 0.757 0.393 1.06 0.698l0.116 0.396v7e-3l-0.293 0.292-0.543 0.114c-2.17 0-2.13-0.242-5.24-0.879-0.524-0.054-1.02-0.25-1.44-0.566-0.267-0.167-0.123-0.017-0.69-0.814 0.794-0.562 0.617-0.475 0.925-0.541 0.305-0.075 0.618-0.111 0.932-0.107z"/><path d="m242 186c0.288 0.56 0.203 0.113 0.34 2.34 0.11 2.48-0.04 4.98-0.448 7.43-1.02 6.19-3.95 11.9-8.37 16.4-6.27 6.5-15.2 9.81-24.2 10.2-9.34 0.418-16.9-2.07-25.5-5.78-5.57-2.42-11.6-5.03-16.2-8.84-2.16 0.775-4.41 1.29-6.7 1.52-4.89 0.467-10.1-0.256-13.7-3.51h-4e-3l-0.2-0.41 0.131-0.427c0.011-7e-3 0.395-0.199 0.408-0.205 0.49 0.149 0.403 0.102 0.559 0.233 0.462 0.363 0.951 0.69 1.46 0.978 5.24 2.79 11.9 1.96 17.5-0.036 2.02-0.757 0.244 0.386 9.01 5 4.59 2.33 13.2 6.17 19.3 7.89 23.9 6.54 44-6.56 45.6-27.6 0.251-4.78-0.21-4.1 0.151-5.15l0.408-0.208 0.436 0.141z"/><path d="m147 188c0.44 0.265 1.42 0.72 1.8 0.926 0.354 0.19 0.251 0.147 0.613 0.356 1.42 0.815 2.97 1.36 4.58 1.6 1.51 0.197 3.04 0.154 4.54-0.129 1.04-0.231 0.378-0.204 1.21-0.196l0.335 0.278 4e-3 6e-3v0.435c-0.158 0.277-0.405 0.491-0.701 0.609-0.918 0.512-1.92 0.847-2.97 0.988-2.67 0.179-5.33-0.423-7.66-1.73-0.699-0.335-1.32-0.805-1.84-1.38-0.251-0.267-0.641-0.766-0.709-0.868l-0.158-0.451 0.112-0.387v-5e-3l0.373-0.15 0.47 0.104z"/><path d="m148 197c3.58 0.568 4.03 1.34 8.68 0.836 0.985-0.091 1.96-0.245 2.93-0.459l0.486 0.041 0.308 0.297v6e-3l-0.027 0.431c-0.33 0.357-0.188 0.317-1.24 0.823-1.08 0.525-2.26 0.84-3.46 0.927-1.3 0.11-2.6 0.065-3.89-0.135-1.57-0.101-3.07-0.689-4.29-1.68l-0.285-0.39-0.012-0.397v-6e-3l0.308-0.251 0.479-0.043 0.015 2e-3z"/><path d="m172 174h7e-3l0.251 0.372c3e-3 0.291-0.092 0.574-0.27 0.804-1.66 2.4-4.02 4.23-6.77 5.23-3.97 1.62-8.12 2.69-12.4 2.24-1.46-0.211-2.86-0.706-4.13-1.46-0.152-0.083-0.072-0.01-0.419-0.434v-0.428l0.32-0.279c0.502-0.018 0.41-0.033 0.502-5e-3 1.24 0.358 2.52 0.579 3.81 0.658 3.32 0.266 6.53-0.033 11.5-2.08 2.11-0.818 4.07-1.97 5.8-3.42 1.3-1.32 0.607-0.827 1.3-1.27l0.441 0.073z"/>
<path d="m87 160h0.0075l0.297 0.334-0.0075 0.457c-2.97 7.92-4.03 16.4-3.1 24.8 0.356 3.02 1.15 5.97 2.35 8.76 2.7 6.17 7.55 9.76 14.3 10.7 8.82 1.22 20.9-2.76 28.3-9.57 0.871-0.808 0.502-0.58 1.11-0.832l0.428 0.167 0.177 0.419-0.167 0.435c-9.14 9.57-26.4 15.2-37.7 8.82-13.3-7.57-13.4-31.1-6.72-44.2 0.0058-5e-3 0.341-0.3 0.346-0.305l0.442 0.022z"/><path d="m123 164v5e-3l0.147 0.396-0.15 0.442c-0.736 0.955-1.56 1.83-2.47 2.62-0.941 0.742-1.95 1.39-3.02 1.93-0.296 0.15-0.045 0.032-0.694 0.343-2.31 1.04-2.1 0.699-2.07 0.996 0.763 5.18 1.01 4.64 1.94 10.4 0.355 2.48 0.335 2.02 0.197 2.63l-0.367 0.258h-7e-3l-0.436-0.101-0.273-0.389c-0.746-2.88-2.46-7.56-3.1-13.6-0.022-0.956 0.652-1.01 1.46-1.28 0.843-0.287 1.66-0.637 2.45-1.05 1.88-1.08 3.68-2.28 5.41-3.58 0.175-0.135 0.054-0.077 0.578-0.251l0.398 0.153z"/><path d="m119 150h8e-3l0.181 0.392-0.119 0.467c-0.827 1.34-1.89 2.52-3.14 3.48-1.5 1.15-3.12 2.13-4.84 2.92-0.856 0.452-1.8 0.72-2.76 0.788-0.331 0.073-0.675 0.052-0.994-0.061l-0.27-0.296c0-9e-3 0.063-0.389 0.065-0.398l0.335-0.344c0.021-8e-3 1.32-0.767 1.38-0.796 1.56-0.669 3.06-1.46 4.5-2.36 1.04-0.684 3.68-2.73 4.57-3.51 0.294-0.263 0.131-0.159 0.663-0.396l0.419 0.119z"/><path d="m121 156v5e-3l0.185 0.39-0.112 0.47c-0.79 1.34-1.79 2.54-2.96 3.56-1.41 1.23-3 2.24-4.72 3-0.888 0.445-1.87 0.668-2.86 0.648-0.345 0.044-0.696-0.014-1.01-0.167-7e-3 -9e-3 -0.233-0.319-0.239-0.329l0.111-0.381 0.37-0.307c0.335-0.129 1.45-0.694 1.71-0.799 1.57-0.546 3.04-1.33 4.36-2.34 0.604-0.454 3.47-2.88 4.29-3.66l0.443-0.203 0.424 0.109z"/><path d="m118 143v5e-3l0.143 0.428-0.193 0.43c-0.508 0.297-5.96 6.82-14.9 9.05-4.89 1.23-11.2 0.85-13.9-3.32-0.283-0.446-0.515-0.923-0.689-1.42-0.0334-0.098-0.0167 0 0-0.511l0.293-0.319h0.436c0.377 0.326 0.32 0.251 0.373 0.344 0.0954 0.028 1.08 2.63 5.93 3.65 7.45 1.49 15.7-3.62 21.6-8.37l0.451-0.145 0.409 0.177z"/><path d="m96.9 152c-4.97-9.19-6.11-13.2-7.66-15.9 1.26-1.51 2.54-2.98 3.91-4.39 5.67 0.748 11.4 1.32 17 2.14 0.771 4.06 2.85 7.69 3.93 11.6-2.62 2.68-6.13 4.13-9.65 5.18-2.37 0.841-4.87 1.27-7.39 1.26"/><path d="m93.2 131c5.99 0.782 10.7 1.26 16 1.99 1.26 0.174 1.28 0.144 1.6 0.411 0.35 0.391 0.22 0.436 0.519 1.6 0.968 3.74 2.59 6.63 3.56 10.1 0.143 0.502 0.204 0.628 0.055 1.03-0.318 0.443-0.704 0.832-1.14 1.16-1.07 0.897-2.24 1.66-3.5 2.28-3.57 1.68-7.39 2.77-11.3 3.22-0.668 0.049-1.34 0.045-2.01-0.011-0.457 0.04-0.19 0.068-0.669-0.256-0.0996-0.178-3.14-5.29-5.44-10.2-0.814-1.74-1.23-3.03-2.26-5.02-0.165-0.233-0.292-0.49-0.377-0.762-0.101-0.645 0.231-0.869 0.682-1.4 1.27-1.5 1.98-2.28 2.83-3.2 0.611-0.655 0.802-0.998 1.47-0.962zm0.193 2.03c-1.71 1.82-2.93 3.29-3.06 3.43 0.828 1.43 2.18 5.26 6.82 15.1 3.61 0.026 9.65-2.1 12.4-3.66 1.23-0.665 2.36-1.49 3.37-2.45 0-0.572-2.48-6.12-3.48-9.7v-8e-3c-0.084-0.335-0.108-0.429-0.189-0.774-1e-3 -0.096-15.9-2-15.9-1.95z"/></g><path d="m110 146c-0.464-0.385-0.276-0.077-1.64-2.22-0.058-0.107-0.404-0.66-0.612-1.09-0.281-0.586-1.06-2.26-1.3-2.86-0.817-1.89-0.81-1.67 0.066-2.95 0.302-0.456 0.568-0.82 0.609-0.891 0.444-0.517 0.937-0.99 1.47-1.41l0.447-0.197 0.386 0.068h7e-3l0.178 0.349c-0.068 0.603 0.034 0.321-0.609 1.78-0.331 0.592-0.697 1.16-1.1 1.71 1.23 3.05 1.44 2.67 2.78 6.85l0.012 0.522-0.257 0.348h-8e-3l-0.437-7e-3z" fill="#fff"/><g fill="#212429"><path d="m176 149 0.242 0.357c0 0.739-0.453 0.664-4.06 1.69 0 0.232-2.3 0.236-14.8 4 0.027 0.877 0.154 3.85 0.154 8.18 0 3.53 0.115 2.74-0.132 3.43l-0.401 0.212-0.424-0.156-0.223-0.425c0-0.428-0.717-4.9-0.89-10.4-0.053-1.71-0.093-1.59 0.05-1.95 0.289-0.488 0.047-0.354 4.46-1.65 11.4-3.31 11.8-2.83 11.8-2.97 0.098-0.013 2.97-0.404 3.74-0.404l0.444 0.127z"/><path d="m166 166c5.23 0.073 4.3 0.121 9.69 0.121l0.447 0.168 0.204 0.401v7e-3l-0.157 0.423-0.424 0.215c0 0.096-5.36 0.502-10 0.608-16.4 0.076-17.2 0.993-22.8 0.446-1.14-0.11-2.36-0.334-2.46-0.347l-0.401-0.233-0.138-0.41v-9e-3l0.212-0.379c0.279-0.157 0.604-0.213 0.92-0.159 4.02-0.027 15-0.996 24.9-0.852z"/><path d="m171 176c0.104-3.07 0.418-6.13 0.577-9.2-5.54 0.064-11.1 0.276-16.6 0.321-2.86-0.047-5.71 0.061-8.56 0.325 0.96 4.59 2.05 9.1 3.16 13.6 1.86 0.298 3.63 1.02 5.54 0.976 4.04-0.094 8.51-1.78 12-3.66 1.44-0.625 2.8-1.41 4.05-2.34"/><path d="m172 167c0.117 0.307 0.114 0.294-7e-3 1.6-0.796 8.49-0.91 7.29-0.652 8.09-0.205 0.438-0.152 0.391-0.373 0.577-1.03 0.796-2.15 1.48-3.33 2.03-1.5 0.866-3.05 1.64-4.64 2.31-1.51 0.629-3.06 1.13-4.65 1.51-2.59 0.715-5.32 0.66-7.88-0.157-1.79-0.419-1.66-0.251-2.05-0.615-0.191-0.256-0.065 0.386-1.66-6.39-0.287-1.2-0.928-3.96-1.46-6.42-0.291-1.36-0.427-1.55-0.112-2.06 0.339-0.399 0.558-0.386 1.08-0.443 1.68-0.173 3.07-0.225 4.77-0.257 21.7-0.337 20.5-0.571 21 0.233zm-24.8 1.9c0.559 2.74 2.1 9.17 2.78 11.9 2.8 0.542 3.32 1.13 6.54 0.753 5-0.604 9.28-2.97 11.7-4.11 0.619-0.281 1.21-0.617 1.77-1 0-3.68 0.151-5.7 0.219-8.12-3.42 0.132-20.6 0.318-23 0.538z"/><path d="m75.8 135c0.138 0.024 0.263 0.096 0.353 0.203s0.14 0.243 0.14 0.383c0.411 39.8 0.456 38.1 0 38.6-0.167 0.141-0.378 0.22-0.597 0.221-2.15 9e-3 -40.5 0.083-40.9-0.034-0.21-0.078-0.387-0.225-0.502-0.418-0.194-0.424-0.126 2.32-0.126-38.4 6e-4 -0.224 0.0798-0.44 0.224-0.611 0.144-0.172 0.343-0.287 0.564-0.327 3.32-0.297 40.8 0.342 40.9 0.35zm-39.8 1.54v36c21.1 0-31.7 0.024 38.7 0.028 0.0946 0.049-0.0778 1.5 0.327-36.3-22.2 0.413-21.4 0.359-39.1 0.359z"/><path d="m87.9 198c0.854 0.291 0.275-0.022 1.08 0.44l0.185 0.359v6e-3l-0.204 0.347-0.47 0.238c-2.36 0.471-0.418 0.287-4.5 0.395-0.468 0.083-0.949 0.03-1.39-0.152-0.549-0.251-0.271-0.038-1.03-0.765 0.721-0.753 0.469-0.547 0.994-0.808 0.427-0.201 0.903-0.278 1.37-0.22 3.07-0.078 2.75-0.106 3.96 0.16z"/><path d="m78.4 211c0.326-0.041 0.657 0 0.964 0.119 2.28 1.15 4.48 2.47 6.57 3.95 1.83 1.24 2.27 1.34 2.14 2.21-0.0478 0.218-0.17 0.413-0.346 0.55-0.286 0.188-0.335 0.188-0.906 0.261-3.56 0.464-7.07-0.258-10.7-0.621-7.46-0.723-12.1-2.12-18.2-2.99-1.92-0.286-1.96-0.327-2.87-0.515l-0.382-0.266-0.092-0.447c0.0058-0.01 0.255-0.37 0.262-0.38l0.408-0.084 0.015-0.012c3.3-0.669 6.63-1.12 9.99-1.34 3.36-0.25 10.1-0.441 13.2-0.434zm-0.335 1.95c-5.51 0.011-11.2 0.339-14.2 0.458-2.94 0.12-2.68 0.05-1.61 0.213 1.92 0.295 5.98 0.921 8.42 1.24 0 0.095 11.2 1.41 13.6 1.43-1.73-1.18-3.53-2.26-5.38-3.24-0.243-0.124-0.101-0.11-0.817-0.108zm0.258-0.195 0.0117 5e-3 -0.015-0.012 0.0033 7e-3z"/><path d="m71.6 201c2.08-0.025 4.15 0.087 6.21 0.335 1.14 0.112 0.816 0.036 1.38 0.292l0.186 0.402v6e-3l-0.186 0.402-0.447 0.2c-0.402 0-1.84 0.234-4.98 0.312-1.88 0.049-1.13-0.134-8.02 0.12-1.77 0.179-3.56 0.011-5.26-0.495l-0.39-0.265-0.13-0.394v-6e-3l0.219-0.351c1.29-0.487 10.1-0.563 11.4-0.558z"/><path d="m40 208c0.572 0.018 1.04 0.125 3 0.178 2.88 0.062 3.69-0.121 5.36-0.05 2.69 0.124 2.26 0.083 2.84 0.307l0.219 0.375v7e-3l-0.167 0.403-0.447 0.244c-2.51 0.592-5.09 0.815-7.66 0.663-3.48-0.072-3.97-0.339-5.12-0.836-0.126-0.053-0.0435 0-0.462-0.352l-0.108-0.384c0.0058-0.01 0.232-0.313 0.238-0.322l0.458-0.155c0.105-8e-3 1.61-0.089 1.84-0.078z"/><path d="m247 221 0.231 0.418v7e-3l-0.223 0.425-0.54 0.186-5.51 0.402-24 0.349-12.6 0.167-12.1 0.144-144 1.34-6.22 0.034-6.74 0.02-13.5 8e-3 -16.7-0.024h-0.378l-0.418-0.175-0.182-0.414v-7e-3l0.173-0.418 0.418-0.182 0.382-9e-3 16.7-0.341 13.5-0.251 6.74-0.106 6.23-0.084 144-1.34 12.1-0.083 12.6-0.07 24-0.102 5.51-0.076 0.546 0.182z"/></g><g fill="#fff"><path d="m15.8 198c5.93 0.112 6.28 0.119 8.59 0.601 0.288 0.035 0.561 0.145 0.793 0.319l0.167 0.395v6e-3l-0.215 0.372c-0.249 0.147-0.533 0.224-0.822 0.225-1.59 0.192-3.2 0.23-4.79 0.115-1.51 0.032-3.03-0.024-4.53-0.167-1.36-0.311-1.26-0.32-1.7-0.586l-0.167-0.349v-6e-3l0.182-0.343 0.425-0.239c0.672-0.206 1.37-0.321 2.07-0.343z"/><path d="m30.8 209c1.92 0.142 1.42 0.023 2.09 0.294l0.212 0.39v6e-3l-0.182 0.405-0.454 0.223c-4.72 0.655-3.66 0.462-12.4 0.719-1.39 0.1-2.79 0.021-4.15-0.235l-0.428-0.205-0.19-0.364v-6e-3l0.16-0.378 0.412-0.238c0.335-0.051 0.372-0.109 1.55-0.315 0.856-0.153 1.72-0.221 2.59-0.204 8.84-0.253 7.78-0.237 10.8-0.092z"/><path d="m31.2 218c0.502 0.358 0.378 0.205 0.572 0.658-0.837 0.669-0.533 0.502-1.17 0.669-0.706 0.214-1.34 0.177-3.58 0.221-0.187 0.025-0.376 5e-3 -0.554-0.058-0.688-0.282-0.617-0.291-1.23-0.915 0.645-0.628 0.535-0.594 1.21-0.898 0.277-0.088 0.108-0.062 0.858-0.083 2.36-0.046 2.52-0.148 3.89 0.406z"/></g><path d="m197 163c0.789 0.517 0.569 0.277 1.19 3.51 1.05 5.66 1.66 8.16 2.16 11.3 0.617 3.95 0.658 3.55 0.066 4.01h-8e-3l-0.435-0.083-0.297-0.383c0-0.096-0.016 0.033-0.753-2.38-1.3-4.49-1.12-4.42-2.75-12.7-0.418-2.28-0.146-1.53-1.04-2.46-0.177-0.179-0.543-0.541-0.628-0.624-0.286-0.296-0.608-0.554-0.96-0.768l-0.304-0.356-0.023-0.419v-5e-3l0.305-0.291 0.466-0.037c1.09 0.372 2.1 0.924 3.01 1.63z" fill="#212429"/><path d="m103 137c2.6 0.344 1.6 0.13 3 0.512 0.943 0.33 0.521 0.094 1.14 0.498l0.151 0.355v6e-3l-0.188 0.335-0.425 0.212c-0.8 0.201-1.63 0.255-2.45 0.161-1.29-0.148-5.98-0.778-7.26-1.06-2.3-0.502-1.78-0.323-2.37-0.648l-0.158-0.392v-7e-3l0.2-0.373c0.304-0.175 0.654-0.255 1-0.23 2.6-0.167 3.22 0.065 7.36 0.633z" fill="#fff"/><path d="m134 172 0.369 0.176 0.208 0.414c0.437 3.4 0.317 0.726 0.39 11.9 0.024 2.39-0.086 4.77-0.328 7.15l-0.197 0.456-0.396 0.19h-5e-3l-0.396-0.19c-0.21-0.485-0.203-0.154-0.401-2.84-0.186-2.61-0.227-2.32-0.227-12.5-4e-3 -1.4 0.126-2.8 0.389-4.18l0.215-0.409 0.374-0.168 5e-3 -1e-3z" fill="#212429"/></g><path d="m55.9 140c2.55 0 4.62-2.07 4.62-4.62s-2.07-4.62-4.62-4.62-4.62 2.07-4.62 4.62 2.07 4.62 4.62 4.62z" fill="#FD710F"/><g clip-rule="evenodd" fill-rule="evenodd"><g fill="#212429"><path d="m56.4 130c0.929 0.028 1.83 0.302 2.62 0.794 0.789 0.491 1.43 1.18 1.87 2 0.435 0.821 0.645 1.74 0.608 2.67s-0.319 1.83-0.818 2.62c-0.483 0.819-1.17 1.5-1.99 1.98-0.82 0.481-1.75 0.745-2.7 0.768s-1.89-0.197-2.73-0.638-1.56-1.09-2.08-1.88c-0.483-0.728-0.781-1.56-0.867-2.43-0.0859-0.87 0.0422-1.75 0.373-2.56 0.331-0.809 0.855-1.52 1.53-2.08 0.671-0.559 1.47-0.946 2.32-1.13 0.614-0.107 1.24-0.146 1.86-0.115zm-0.535 1.22c-0.949 0.058-1.85 0.459-2.52 1.13-0.676 0.669-1.08 1.56-1.15 2.51 0 4.34 4.93 5.36 6.86 2.16 0.115-0.207 0.209-0.424 0.281-0.65 0.155-0.568 0.186-1.16 0.0904-1.74-0.0956-0.582-0.315-1.14-0.644-1.63s-0.76-0.901-1.26-1.21-1.07-0.504-1.65-0.574l-0.0016 9e-3zm0.046-1.21h0.0192-0.0192z"/><path d="m69.6 167c3.97 0.141 5.66-0.117 9.19 0.151 2.08 0.162 1.67 0.103 2.17 0.335l0.176 0.385v6e-3l-0.167 0.387c-0.534 0.263-0.116 0.167-2.15 0.39-2.86 0.282-5.74 0.375-8.61 0.277-1.21 6.55-2.47 11.2-6.17 17-0.201 0.312-0.0837 0.196-0.54 0.524l-0.438-0.05-0.268-0.357c0.0602-0.558 0.0176-0.401 0.181-0.725 0.822-1.65 1.55-3.35 2.18-5.08 3.82-10.4 2.71-12.2 3.68-13 0.223-0.149 0.494-0.208 0.76-0.166z"/><path d="m71.6 192c1.71 0.012 3.39 0.53 4.81 1.49 1.19 0.798 2.16 1.88 2.82 3.16 1.27 2.58 0.998 3.4 0.998 11.4-0.0167 5.12 0.0276 4.66-0.135 5.02-0.105 0.187-0.271 0.333-0.471 0.413s-0.421 0.089-0.626 0.025c-0.373-0.152-0.206-0.13-0.44-0.133-3.5-0.03-10.4 0.127-17.1 0.591 4 0.733 6.82 1.26 10.2 1.77 7.45 1.12 8.18 0.624 8.26 1.58h-0.0117c0.0837 6.75 0.105 6.08 0.046 6.33-0.0504 0.151-0.153 0.279-0.289 0.363-0.0954 0.047 1.51 0.364-45.9 0.364-0.225 0-0.443-0.079-0.616-0.224-0.173-0.144-0.289-0.345-0.328-0.567-0.0117-0.167-0.0352-22.9 0.015-23.6 0.163-1.99 1.01-3.86 2.39-5.31 1.38-1.44 3.22-2.37 5.2-2.62 0.889-0.099 31.1-0.065 31.2-0.064zm-5.33 1.91c-25.7 0-25.5-0.251-27.4 0.502-0.894 0.366-1.7 0.917-2.36 1.62-0.664 0.701-1.17 1.54-1.49 2.45-0.52 1.32-0.37 1.11-0.37 24 24.1 0 20.2-0.047 43.9 0.264l0.0117 0.014v-4.9c-5.25-0.603-4.21-0.21-16.6-2.25-3.01-0.493-6.12-0.715-7.14-1.02-0.17-0.066-0.312-0.189-0.403-0.348-0.0904-0.159-0.124-0.344-0.0944-0.524 0.0293-0.18 0.12-0.345 0.256-0.467 0.136-0.122 0.31-0.193 0.492-0.203 0.0971-5e-3 8.49-1.47 23.1-1.53 0.103 0 0.0418 0.814 0.0418-10.9-0.0325-1.48-0.551-2.92-1.48-4.08-0.925-1.16-2.2-1.99-3.64-2.36-1.09-0.288-1.73-0.208-6.92-0.208zm12.1 19.3 0.0075 5e-3 -0.0117-0.011 0.0042 6e-3z"/></g><g fill="#fff"><path d="m161 50.5c0.589 0.0249 1.17 0.142 1.73 0.346 0.367 0.134 0.227 0.0619 0.647 0.399l0.108 0.38v0.0059l-0.232 0.316c-0.718 0.258-0.299 0.0971-1.25 0.251-1.45 0.0913-2.86 0.505-4.13 1.21-0.777 0.447-1.49 1-2.11 1.65-1.01 0.992-1.9 2.1-2.66 3.29l-0.362 0.308-0.423 0.0075h-9e-3l-0.281-0.32c-0.059-0.371 6e-3 -0.752 0.185-1.08 0.455-1.33 1.2-2.54 2.18-3.54 0.747-0.764 1.59-1.42 2.52-1.96 1.24-0.747 2.64-1.18 4.08-1.26z"/><path d="m151 64.7c-0.058-0.0938-0.11-0.192-0.154-0.293-0.181-0.671-0.272-1.36-0.27-2.06 0.042-0.102 0.096-0.197 0.162-0.285h4e-3c0.059-0.0786 0.123-0.153 0.192-0.223 1.43 0.0786 1.09 0 1.35 0.261 0.031 0.047 0.066 0.0917 0.104 0.134 0.019 0.0326 0.033 0.0527 0.054 0.0837 0.049 0.545 0.135 1.09 0.258 1.62 0.016 0.617-0.158 1.22-0.497 1.74-0.816-0.486-0.75-0.384-1.2-0.981z"/><path d="m153 130 0.317 0.304c0 0.01-0.015 0.435-0.016 0.444l-0.324 0.339c-1.11 0.539-2.88 1.46-3.83 1.97-3.05 1.72-3.52 1.68-7.89 4.39-3.65 2.26-4.75 3.39-8.12 5.33l-0.451 0.1c-0.013-5e-3 -0.366-0.181-0.377-0.189l-0.104-0.402 0.192-0.418c0-0.098 1.85-1.84 2.24-2.17 4.23-3.25 8.83-6 13.7-8.2 3.76-1.53 4.2-1.43 4.2-1.53l0.47 0.023z"/></g></g></svg>
