<svg fill="none" viewBox="0 0 235 235" xmlns="http://www.w3.org/2000/svg"><g fill="#212429"><path d="m91.7 118c0.978 0.64 1.73 1.58 2.14 2.67 0.142 0.356 0.258 0.723 0.345 1.1 0.32 1.37 0.293 2.79-0.0783 4.14-0.194 0.968-0.686 1.85-1.41 2.52-0.722 0.672-1.64 1.1-2.62 1.22 0.631 3.94 1.22 6.55 1.35 7.17 0.614 2.64 0.567 1.98 0.484 2.62l-0.325 0.264-0.413-0.051-0.267-0.329c0-0.083-0.833-2.48-1.61-5.88-1.1-4.83-0.978-4.52-0.851-4.84 0.0791-0.154 0.205-0.278 0.359-0.356 0.337-0.126 0.752-0.102 1.52-0.345 0.544-0.143 1.02-0.471 1.35-0.927 0.52-0.824 0.838-1.76 0.931-2.73 0.0923-0.97-0.0442-1.95-0.399-2.86-0.298-0.901-0.94-1.65-1.79-2.08-0.956-0.532-0.136-1.03-0.811-4.67-2.41-12.4-16.2-12.7-21.7-5.3l-0.356 0.219-0.392-0.074h-0.0071l-0.212-0.338c0.0846-0.485 0.0564-0.392 0.119-0.489v-4e-3c6.78-10.4 24.5-7.34 24.7 9.34z" clip-rule="evenodd" fill-rule="evenodd"/><path d="m73.9 114c0.664-0.017 1.31 0.229 1.79 0.684 0.28 0.227 0.482 0.536 0.576 0.884 0 5e-3 -0.0736 0.356-0.0736 0.361-1.2 0.119-0.511 0.084-1.2-0.034-0.122-0.025-0.246-0.043-0.37-0.052l-0.018-5e-3c-0.419-0.093-0.853-0.089-1.27 0.01l-0.022 0.01c-0.241 0.084-0.458 0.224-0.635 0.409-0.0979 0.134-0.192 0.156-0.643 0.441-0.0846 0.067 0.0306 0-0.74 0.336-0.34-0.784-0.301-0.677-0.309-0.761-0.0301-0.363 0.0551-0.727 0.244-1.04 0.392-0.491 0.916-0.859 1.51-1.06 0.375-0.126 0.768-0.188 1.16-0.184z" clip-rule="evenodd" fill-rule="evenodd"/><path d="m75.6 121c0.0433-0.994-0.633-1.83-1.51-1.87-0.878-0.038-1.62 0.737-1.67 1.73-0.0434 0.994 0.633 1.83 1.51 1.87 0.878 0.038 1.62-0.737 1.67-1.73z"/></g><g clip-rule="evenodd" fill="#212429" fill-rule="evenodd"><path d="m74 134-0.435-0.113c-0.103-0.067-0.427-0.223-0.54-0.276-0.0674-0.032-0.705-0.334-0.778-0.366-0.188-0.088-0.371-0.185-0.548-0.291-0.345-0.195-0.717-0.338-1.1-0.423-0.089-0.015-0.179-0.023-0.269-0.023h-0.157v4e-3l-0.0117 0.011-0.0039 7e-3v7e-3h-4e-3c-0.0101 0.017-0.0192 0.035-0.0274 0.053l-0.0078 6e-3 -0.0157 0.021-7e-3 7e-3 -0.0079 0.014-0.0078 8e-3 -0.0227 0.021-0.0078 0.014-0.0345 0.041c-0.0566 0.065-0.107 0.136-0.15 0.21-0.0741 0.106-0.139 0.218-0.195 0.335v0.01l-0.554 0.532c-0.595-0.62-0.529-0.455-0.668-1.06-0.0168-0.151-0.0233-0.303-0.0196-0.456 0.0106-0.159 0.0465-0.316 0.107-0.464 0.164-0.355 0.427-0.655 0.756-0.866 0.396-0.236 0.857-0.341 1.32-0.3 0.962 0.117 1.88 0.484 2.65 1.06 0.442 0.371 0.83 0.804 1.15 1.28l0.136 0.425-0.113 0.356-0.428 0.212z"/><path d="m67.5 138c0.235 0.2 0.869 0.642 0.955 0.695 1.26 0.967 2.77 1.53 4.36 1.63 0.791 0.044 1.58-0.027 2.35-0.211 0.606-0.137 1.21-0.478 1.65 0.386 0.687 1.54 1.26 3.14 1.72 4.76 0.281 0.861 0.235 0.541 0.229 1.12l-0.262 0.303h-0.0079l-0.4 4e-3c-0.392-0.34-0.24-0.062-1.13-1.76-0.0415-0.069-1.01-2.05-1.47-3.08-0.665 0.158-1.34 0.244-2.03 0.255-1.95 0.039-3.86-0.512-5.48-1.58-0.684-0.44-1.27-1.02-1.71-1.7v-7e-3c-0.22-0.334-0.418-0.682-0.59-1.04l-0.0501-0.429 0.194-0.319h0.0078l0.37-0.06c0.666 0.363-0.0117-0.066 1.28 1.04z"/><path d="m70 140c-1.39-0.5-3.23-1.04-3.62-2.46-0.29-1.02-0.528-2.06-0.713-3.11-0.222-1.37-0.27-2.76-0.141-4.13 0.0211-0.152-0.0415-0.536 0.0885-0.452 1.35 0.909 0.618 3.19 4.2 10"/><path d="m68.7 138c0.773 0.362 1.62 0.527 2.48 0.483-0.451-1.1-1.71-4.21-0.528-4.03 0.377 0.06 0.66 0.447 0.856 0.738 0.515 0.762 0.705 1.91 1.43 2.52 0.647 0.548 2.3-0.21 2.94-0.47 0.426-0.173 1.49-0.392 1.64-0.936 0.157-0.596-0.351-1.38-0.57-1.9-0.477-1.13-0.983-2.27-1.52-3.38-0.264-0.693-0.664-1.33-1.18-1.87-1.12-0.997-1.92-0.406-2.65-0.895-0.459-0.313-0.678-0.849-0.0235-1.11 0.59-0.164 1.22-0.157 1.8 0.021 0.58 0.089 1.14 0.28 1.65 0.563 1.51 0.926 2.27 2.74 3.73 5.04 1.09 1.76 1.05 3.24 3.66 0.355 3.82-4.2 2.33-5.88 3.54-10 0.0783-0.256 0.265-1.03 0.668-0.934 0.632 0.156 0.822 1.1 0.889 1.63 0.258 1.71 0.225 3.45-0.0979 5.15-0.292 1.56-0.928 3.03-1.86 4.32-1.1 1.37-3.78 4.1-6.67 5.3-0.635 0.262-2.86 1.26-3.38 1.39-4 1.03-7.37-0.604-7.9-1.78-0.0987-0.235 0.0055-0.462 0.283-0.446 0.294 0.045 0.58 0.134 0.848 0.264"/><path d="m45.7 114c0.342 0.368 0.235 0.068 0.843 1.93 4.85 16.4-3.33 28.1-1.79 52.7 0.572 7.56 1.94 14 5.89 20.4 3.03 4.72 7.23 8.57 12.2 11.2 0.411 0.018 11.4 7.43 27.7 1.88l0.421 0.022 0.286 0.304c0 0.011-0.0211 0.411-0.0219 0.422l-0.305 0.29c-3.25 1.22-6.65 2-10.1 2.31-6.82 0.624-13.7-0.832-19.7-4.18-5.98-3.34-10.8-8.42-13.8-14.6-5.39-10.9-5.11-26.6-3.51-38.7 0.991-8.45 4.01-20.6 2.1-29.7-0.235-1.23-0.548-2.45-0.935-3.64l0.0329-0.414 0.304-0.276 0.4 0.022z"/><path d="m51.2 112 0.334 0.281c1 1.37 1.16 2.41 1.6 4.57 0.267 1.37 0.408 2.76 0.422 4.15-0.0324 0.837-0.128 1.67-0.286 2.49l-0.208 0.384-0.364 0.151-0.349-0.181-0.177-0.402h-0.0039c-0.0446-0.562-0.309-2.43-0.422-3.72-0.295-3.37-0.94-4.64-1.12-6.12-0.0039-0.031-0.0971-0.91-0.103-0.94 0-6e-3 0.0721-0.428 0.0729-0.434l0.246-0.26h0.0079l0.352 0.031z"/><path d="m57.5 112c0.267 0.185 0.479 0.439 0.614 0.734 0.238 0.376 0.432 0.779 0.579 1.2 0.367 1.41 0.599 2.86 0.693 4.31 0.138 1.33 0.0513 2.68-0.257 3.99-0.0689 0.372-0.293 1.01-0.297 1.1l-0.254 0.357-0.377 0.11-0.327-0.22-0.129-0.421c0-0.973-0.094-4.2-0.113-4.63-0.0875-1.43-0.307-2.84-0.656-4.23-0.0603-0.347-0.166-1.59-0.163-1.65l0.0784-0.433 0.246-0.257h0.0071l0.354 0.04z"/><path d="m63.8 114c0.281 0.405 0.284 0.186 0.696 2.82 0.358 3.35 0.428 6.73 0.21 10.1-0.151 2.71-0.0405 5.43 0.331 8.12 1.87 10.8 9.77 22.7 14.3 35.3 0.136 0.256 0.18 0.551 0.123 0.835l-0.302 0.287-0.414-0.021c-0.387-0.402-0.17-0.031-0.839-1.62-4.73-10.6-12.3-23.1-14.4-33.4-1.47-7.53 0.214-13.6-0.414-21-0.127-1.04-0.133-0.753-0.0094-1.27l0.338-0.226 0.388 0.094z"/><path d="m84.2 163 0.308 0.229c0 6e-3 -0.0094 0.38-0.0102 0.387-1.03 1.33-3.16 1.98-5.54 3.37-0.447 0.28-0.948 0.465-1.47 0.542-0.166 0.045-0.0063 0.059-0.876-0.121 0.179-0.871 0.128-0.716 0.235-0.856 0.311-0.466 0.735-0.846 1.23-1.1 0.0039-0.091 3.05-1.58 3.51-1.8 0.465-0.179 0.939-0.335 1.42-0.465 0.375-0.159 0.784-0.22 1.19-0.178z"/><path d="m12.7 129h7e-3l0.268 0.304c-0.0235 0.688 0.0854 0.071-0.67 1.95-2.92 7.06-4.65 15.6-5.63 23.3-0.554 4.9-0.819 9.19-0.909 12.3-0.208 3.73 0.154 7.48 1.07 11.1 0.383 1.4 0.844 2.78 1.38 4.13 2.32 5.5 6.53 9.98 11.9 12.7 3.33 1.59 6.97 2.4 10.7 2.37 4.18-0.063 8.31-0.922 12.2-2.53 0.735-0.294 2.99-1.31 3.08-1.4l0.42-0.032c0.0063 5e-3 0.319 0.265 0.324 0.27l0.0329 0.417c-0.363 0.44 0.0126 0.217-2.6 1.5-2.79 1.31-5.73 2.27-8.75 2.84-2 0.361-4.04 0.524-6.07 0.486-0.479 0-0.952-0.045-1.26-0.059-1.44-0.105-2.87-0.334-4.28-0.684-1.41-0.357-2.78-0.838-4.11-1.44-2.99-1.39-5.67-3.35-7.91-5.76-1.99-2.06-3.61-4.44-4.8-7.04-3.54-7.93-3.25-14.7-2.63-23.4 0.967-11.3 2.46-20.9 7.64-31.1l0.313-0.272 0.406 0.014z"/><path d="m29.7 133 0.346 0.189 0.145 0.391c0 0.118-0.0196 1.47 0.0368 2.47 0 0.555 0.0784 1.78 0.0917 2.03 0.108 3.04 0.417 6.07 0.926 9.07 0.862 5.74 3.59 13.6 5.76 19 1.95 4.79 1.7 3.71 1.73 4.46-0.0055 6e-3 -0.261 0.313-0.266 0.32s-0.411 0.021-0.416 0.021c-0.431-0.365-0.235-0.109-0.889-1.31-0.455-0.874-1.78-3.34-2.86-5.91-2.45-5.78-4.16-11.8-5.09-18.1-1.15-7.62-0.133-11.4-0.102-12.2l0.207-0.366 0.374-0.128 0.0109 1e-3z"/><path d="m41.8 162 0.293 0.229c0 6e-3 -0.0266 0.365-0.0266 0.371l-0.295 0.377c-0.548 0.456-1.15 0.838-1.8 1.13-0.0901-4e-3 -0.652 0.308-2.51 0.988-0.174 0.084-0.362 0.136-0.555 0.152-0.0783 9e-3 -0.348 0.015-0.405 0.012-0.516-0.032-0.271 0.04-1.11-0.351 0.392-0.841 0.244-0.611 0.627-0.977 0.23-0.227 0.511-0.396 0.819-0.495 0.161 7e-3 2.93-1.28 3.92-1.38 0.338-0.096 0.694-0.118 1.04-0.063z"/></g><path d="m174 114c1.09-0.077 1.91-1.11 1.83-2.3s-1.04-2.1-2.13-2.02-1.91 1.11-1.83 2.3 1.04 2.1 2.13 2.02z" fill="#212429"/><g clip-rule="evenodd" fill="#212429" fill-rule="evenodd"><path d="m174 104c0.221 0.087 0.435 0.192 0.639 0.313 0.084 0.055 9e-3 -0.013 0.357 0.366l0.041 0.373-0.268 0.256-0.446 0.07c-0.164-0.018-0.33-0.024-0.495-0.018-0.379 0.015-0.757 0.064-1.13 0.146h-4e-3c-0.397 0.046-0.784 0.154-1.15 0.319-0.49 0.222-0.936 0.53-1.32 0.909-0.128 0.15-0.276 0.282-0.439 0.392-0.383 0.341-0.863 0.555-1.37 0.612l-0.192-0.745c0.055-0.308 0.148-0.608 0.277-0.893 0.117-0.243 0.284-0.458 0.49-0.633 0.5-0.492 1.08-0.899 1.71-1.2 0.567-0.266 1.17-0.443 1.79-0.524 0.512-0.016 1.02 0.072 1.5 0.26z"/><path d="m173 125 0.285 0.258 0.078 0.437c-0.08 0.62-0.251 1.22-0.507 1.8-0.046 0.084 0.11-0.22-0.213 0.424-0.825 1.28-1.96 2.33-3.3 3.06-0.445 0.262-0.922 0.464-1.42 0.601-0.404 0.071-0.817 0.08-1.22 0.027-0.295-0.042-0.109 0.059-0.821-0.509 0.684-0.868 0.174-0.38 1.5-1.16 0.72-0.267 1.4-0.636 2.01-1.1 0.689-0.539 1.3-1.17 1.82-1.87 0.115-0.134 0.469-0.578 0.677-0.893 0.153-0.218 0.29-0.446 0.412-0.683l0.306-0.318 0.379-0.059 7e-3 -7e-3z"/><path d="m79.8 27.9 0.338 0.201c0.242 0.718 0.0658-0.248 0.105 3.4 0.0376 3.79 0.0227 3.6-0.197 3.94-0.734 0.779-1.16-0.157-2.91 0.397-0.595 0.186-1.12 0.546-1.51 1.03-0.433 0.569-0.623 1.29-0.531 1.99l0.0071 0.0196v0.0188c0.0055 0.0173 0.0219 0.0838 0.0376 0.128 0.162 0.4 0.457 0.732 0.836 0.94 1.16 0.679 3.29 0.306 3.96 0.486 0.736 0.329 0.493 0.735 0.805 2 0.248 1.33 0.948 2.53 1.98 3.41 1.33 1.06 1.32-0.43 1.11 5.07-0.0493 1.53 4e-3 1.19-0.208 1.71l-0.372 0.172h-0.0016c-0.674-0.284-0.533 0.192-0.832-5.26-1.57-0.728-2.9-2.28-3.48-5.09-0.0314-0.157-0.0423-0.211-0.0564-0.284-1.28 0.113-2.56-0.107-3.73-0.64-0.636-0.353-1.16-0.88-1.5-1.52-0.256-0.51-0.373-1.08-0.338-1.65 0.0425-0.636 0.211-1.26 0.496-1.83s0.68-1.08 1.16-1.49c0.483-0.416 1.04-0.732 1.65-0.93s1.25-0.272 1.88-0.22c0.0679-1.31 0.205-2.61 0.412-3.9 0.318-1.89 0.257-1.56 0.516-1.97l0.377-0.114 0.0071-8e-4z"/><path d="m95.9 28.5 0.358 0.162 0.178 0.381c0.0172 0.526 0.381 3.63 0.423 5.37 0.95-0.0111 1.89 0.2 2.74 0.617 0.581 0.336 1.06 0.823 1.39 1.41s0.49 1.25 0.472 1.92c0 0.242-0.02 0.482-0.06 0.721-0.439 2.51-2.57 3.38-5.13 3.43-0.157 0-0.087-0.0517-0.172 0.284-0.174 0.883-0.522 1.72-1.02 2.47-0.5 0.748-1.14 1.39-1.89 1.89-0.123 0.0784-0.0391-0.204-0.201 2.14-0.163 2.36-0.0258 1.77-0.276 2.35l-0.372 0.17h-7e-3l-0.376-0.157c-0.254-0.548-0.157-0.149-0.248-1.68-0.122-3.84-0.0783-2.81-0.0994-3.1-0.0216-0.137-0.0066-0.278 0.0435-0.408 0.05-0.13 0.133-0.244 0.242-0.331 0.646-0.394 1.19-0.932 1.6-1.57 7e-3 -0.0133 0.0587-0.0995 0.0736-0.12 0.327-0.565 0.58-1.17 0.75-1.8 0.298-1 0.0737-1.31 0.581-1.74 0.461-0.281 0.705-0.0948 1.97-0.188 0.808 0.0013 1.59-0.275 2.22-0.783 0.316-0.347 0.519-0.782 0.584-1.25 0.0647-0.465-0.0124-0.938-0.221-1.36-0.482-0.963-1.57-1.1-2.66-1.14-0.797-0.0259-1.29 0.121-1.62-0.58-0.0605-0.224-0.0822-0.456-0.0643-0.687-0.0362-1.96 0.047-3.93 0.249-5.88l0.182-0.379 0.36-0.157 0.0031-8e-4z"/><path d="m89.4 41c-0.054 0.812 0 0.751-0.216 1.07-0.209 0.346-0.509 0.627-0.869 0.812-0.427 0.178-0.89 0.254-1.35 0.222-0.462-0.0321-0.909-0.171-1.31-0.407-0.3-0.168-0.313-0.171-0.529-0.548-0.0783-0.168-0.12-0.313-0.123-0.313l-0.0783-0.763c1.62-0.165 1.31 0.0094 1.89 0.212 0.541 0.176 0.71-0.0454 1.15-0.12 0.959-0.23 0.239-0.206 1.44-0.161z"/><path d="m87.7 33.1c0.419 1.1 0.27 0.535 0.208 3.19 0.0368 0.839-0.0508 1.68-0.26 2.49-0.0317 0.25-0.122 0.489-0.265 0.696l-0.313 0.183h-0.0071l-0.336-0.157-0.235-0.392c-0.486-1.61-0.396-2.01-0.293-4.37-0.047-0.448 0.0325-0.9 0.23-1.3 0.23-0.48 0.0784-0.288 0.754-0.903 0.0063 0.0109 0.508 0.558 0.518 0.572z"/></g><path d="m84.5 33.6c0.0347-0.796-0.421-1.46-1.02-1.49s-1.11 0.598-1.14 1.39c-0.0347 0.796 0.421 1.46 1.02 1.49s1.11-0.598 1.14-1.39z" fill="#212429"/><path d="m92.1 34c0.0347-0.796-0.421-1.46-1.02-1.49-0.597-0.0261-1.11 0.598-1.14 1.39s0.421 1.46 1.02 1.49c0.597 0.0261 1.11-0.598 1.14-1.39z" fill="#212429"/><g clip-rule="evenodd" fill-rule="evenodd"><g fill="#212429"><path d="m83 46.5c0.284 0.0186 0.567 0.0539 0.848 0.106 0.55 0.251 1.14 0.405 1.74 0.457 0.524 0.0502 0.783 0.0173 1.09 0.0564 1.51 0.187 1.12 0.114 1.66 0.292l0.229 0.28c0 0.0086-0.1 0.348-0.103 0.356l-0.353 0.298c-0.615 0.346-1.31 0.524-2.02 0.516-0.84-0.0155-1.67-0.163-2.47-0.436-0.455-0.109-0.851-0.389-1.1-0.783-0.224-0.35-0.14-0.0893-0.293-1.02 1.03-0.171 0.679-0.131 0.765-0.125z"/><path d="m79.4 35.2c-0.826-1.15-1.32-2.51-1.43-3.92s0.17-2.83 0.809-4.1c-2.63-0.6-4.94-3.11-5.67-5.68 5.25 3.11 15.1-5.44 21.5-1.89 2.55 1.41 3.61 4.58 3.09 7.36 3.72 1.74 2.56 5.13 0.657 8.76-0.746-0.253-1.53-0.372-2.32-0.349-0.172-2.68 0.147-5.38-0.0634-8.06-1.43 0.404-2.89 0.663-4.36 0.774-3.34 0.392-7.06 0.522-10.3-0.382-1.29 2.39-1.9 5.08-1.78 7.79"/><path d="m73.6 20.8c4.34 2.24 11.4-3.32 18-2.88 4.59 0.296 7.09 3.62 7.12 7.76 0.0047 1.37-0.349 0.367 0.905 1.51 2.27 2.29 1.45 5.02 0.0619 7.93-0.475 0.926-0.62 1.61-1.5 1.5-0.69-0.251-1.42-0.364-2.16-0.33-0.96-0.0995-0.873-0.903-0.906-1.74-0.058-1.43 0.0932-4.67 0.0454-6.09-0.686 0.144-1.38 0.254-2.08 0.328-7.91 0.94-10.9-0.164-11.2-0.176-0.164-0.0399-0.264-0.0658-0.265-0.0658-0.311 0.63-0.582 1.28-0.813 1.94-0.488 1.37-0.753 2.82-0.783 4.28-0.0352 0.816 0.12 0.44-0.121 1.12l-0.37 0.19h-7e-3l-0.392-0.134-0.193-0.374v-0.0408l-0.0251-0.0164c-1.19-1.64-1.78-3.64-1.69-5.67 0.052-0.735 0.206-1.46 0.458-2.15-1.58-0.596-2.96-1.64-3.97-3-0.603-0.784-1.07-1.66-1.39-2.6-0.113-0.245-0.153-0.517-0.114-0.783 0.046-0.197 0.158-0.373 0.318-0.497 0.16-0.124 0.358-0.19 0.56-0.187 0.181 0.0071 0.356 0.0652 0.505 0.168zm5.88 6.14c0.0589 0.163 0.0589 0.342 0 0.505-0.475 0.834-0.77 1.76-0.863 2.71s0.0149 1.92 0.319 2.83c0.0509 0.157 0.0086 0.136 0.0681-0.25 0.192-1.42 0.567-2.8 1.11-4.13 0.538-1.24 0.561-1.39 0.977-1.54 0.0838 0-0.0415-0.0204 0.235-0.0181 1.35 0.343 2.74 0.538 4.13 0.582 2.97 0.0365 5.94-0.215 8.86-0.75 0.508-0.105 1.01-0.236 1.5-0.392 0.19-0.0298 0.384 0.0044 0.552 0.0974 0.168 0.0929 0.3 0.239 0.375 0.416 0.291 0.878 0.0681 5.05 0.114 7.55 0.345 0.0236 0.688 0.0715 1.03 0.143 0.0885-0.163 0.267-0.543 0.352-0.714 0.366-0.711 0.646-1.46 0.834-2.24 0.457-2.04-0.117-2.95-1.28-3.69-0.555-0.32-0.558-0.226-0.829-0.53-0.46-0.728 0.198-0.664-0.17-3.21-0.124-0.746-0.395-1.46-0.799-2.1s-0.931-1.19-1.55-1.63c-5.31-3.36-13.9 3.36-19.8 2.43 0.831 1.45 2.11 2.59 3.65 3.24 0.644 0.249 0.902 0.15 1.14 0.674z"/></g><path d="m113 64.1s-7.66 7.56-24.1 9.76c-6.68 0.897-13.5-1.15-19.5-4.11-2.89-1.43-6.36-3.15-8.43-5.67 0.661-2.01 2.6-3.85 4.2-5.16 3.87-3.17 8.75-5.76 13.8-6.32 0.804 1.47 2.11 2.61 3.68 3.2 4.66 2.07 9.63 0.479 12.6-3.55 6.89 0.79 14.6 6.21 17.7 11.8z" fill="#FD710F"/><path d="m109 67.8c-4.46 2.77-9.36 4.77-14.5 5.92-8.62 1.96-15.6 2.1-27.9-4.42-2.28-1.1-4.35-2.6-6.1-4.43-0.119-0.0991-0.217-0.221-0.288-0.359-0.0708-0.138-0.113-0.288-0.124-0.443 0.143-0.662 0.409-1.29 0.783-1.86 0.328-0.527 0.697-1.03 1.1-1.5 1.92-2.05 4.11-3.83 6.52-5.27 3.07-1.94 6.52-3.2 10.1-3.72 0.174-0.0549 0.361-0.0601 0.538-0.015 0.177 0.0451 0.338 0.139 0.465 0.27 0.414 0.887 1.07 1.64 1.89 2.17 3.64 2.45 8.78 2.47 12.6-1.84 0.761-0.909 0.602-0.976 1.86-0.774 6.35 1.05 13.7 5.81 17.4 12.2 0.079 0.11 0.116 0.245 0.105 0.38-0.011 0.135-0.07 0.262-0.166 0.357l-7e-3 -0.0071c-1.35 1.25-2.81 2.37-4.37 3.34zm-14.4-13.5c-1.15 1.18-2.55 2.08-4.1 2.65s-3.21 0.767-4.84 0.6c-3.34-0.375-6.19-2.27-7.15-3.97-3.68 0.624-7.17 2.05-10.2 4.19-1.86 1.21-3.56 2.66-5.05 4.31-0.482 0.56-0.885 1.18-1.2 1.85 0.804 0.855 1.71 1.61 2.69 2.25 2.94 1.81 6.02 3.35 9.23 4.62 6.29 2.41 11 2.74 15.2 2.16 7.28-1.03 15.3-3.48 21.5-7.74 0.552-0.375 1.08-0.778 1.59-1.21-3.4-5.3-10.3-9.99-16.7-10.9-0.321 0.409-0.667 0.799-1.03 1.17z" fill="#FD710F"/><path d="m101 11.9c7.77 0.619 22.2 2.5 29.6 6.17 4.2 1.98 7.73 5.15 10.1 9.12 0.874 1.52 1.53 3.15 1.94 4.86 1.49 6.42-0.615 12.5-4.61 17.8-2.41 3.02-5.05 5.85-7.9 8.46-4.02 3.71-8.31 7.12-12.8 10.2-5.31 3.64-5.21 3.11-4.05 3.06 2.32-0.118 4.64 0.214 6.84 0.977 3.14 1.07 4.19 4.06 2.98 6.52-3.17 6.41-18.4 4.97-21-0.387-0.166-0.324-0.286-0.67-0.356-1.03-11.1 0.993-25.2 3.69-43.7-6.38-4.78-2.63-9.03-5.45-12.2-9.89-1.19-1.64-2.2-3.4-3.03-5.25-2.93-6.54-3.37-13.9-1.23-20.8 6.91-21.7 36.7-25.3 59.4-23.5zm8.55 60.5c0.127-0.554-0.016-0.206 2.59-1.89 8.98-5.7 23.7-17.4 27.7-26.7 1.09-2.39 1.66-4.98 1.68-7.61-0.035-2.3-0.532-4.56-1.46-6.67-0.929-2.1-2.27-4-3.94-5.57-3.51-3.32-6.91-4.94-11.5-6.36-5.3-1.6-12.9-2.78-17.9-3.4-17-2.04-41.2-1.68-54.5 9.03-4.01 3.12-7.04 7.34-8.72 12.1-1.67 4.8-1.93 9.99-0.724 14.9 2.07 8.27 6.39 13.4 12.7 17.4 13.6 8.42 25.3 10.1 39.9 8.82 7.29-0.68 7.35-0.918 7.86-0.302 0.124 0.173 0.177 0.387 0.148 0.598l-6e-3 0.126v0.0181c-0.17 3.89 12.9 7.28 17.8 2.4 1.77-2.08 1.08-4.39-0.867-5.37-1.52-0.624-3.11-1.04-4.74-1.23-1.81-0.147-3.63-0.0756-5.42 0.214v0.0094c-0.078 0.0103-0.158 0.0038-0.234-0.0191-0.075-0.023-0.145-0.0619-0.205-0.114-0.059-0.0523-0.107-0.117-0.14-0.189-0.032-0.0722-0.049-0.15-0.049-0.23z" fill="#212429"/><g fill="#FD710F"><path d="m120 144c-3.15-2.48-7.28-3.87-11.1-4.75-4.87-1.11-14.7-0.322-14.8-0.235-3.78 3.57-7.25 7.38-11.8 10.1-1.81 1.08-5.86 1.75-4.87-1.64-1.61 0.632-3.06 1.62-4.24 2.89 1.96 4.34 3.63 7.84 5.61 12.2 2.05-0.835 3.45-1.1 5.5-1.93 6.21 4.18 10.4 11.9 12.7 18.9 0.884-1.5 1.78-3.03 2.78-4.45-1.16-3.27-2.59-9.82 2.71-10.1-0.274-4.06 0.991-8.65 5.93-8.1-0.18-2.08-0.176-4.43 1.02-6.25 1.51-2.3 4.72-1.22 6.22 0.411 1.28-2.27 4.34-6.98 4.34-6.98z"/><path d="m117 149c-1.53 2.51-1.38 2.68-2 2.65-0.33-0.078-0.351-0.189-0.51-0.329-0.578-0.55-1.28-0.957-2.04-1.19-0.526-0.171-1.09-0.206-1.63-0.103l-0.018 6e-3h-0.022c-0.312 0.072-0.603 0.216-0.848 0.422l-0.012 0.013c-0.887 1.04-1.38 2.35-1.38 3.72-0.105 2.43 0.249 2.5-0.036 3.07-0.082 0.129-0.2 0.23-0.339 0.292s-0.294 0.081-0.444 0.056c-0.885-0.113-1.78 0.036-2.58 0.429-0.5 0.304-0.934 0.705-1.28 1.18s-0.591 1.01-0.727 1.58c-0.129 0.433-0.224 0.875-0.285 1.32-0.355 2.79 0.287 3.01-0.491 3.57-0.773 0.357-4.04-0.299-3.22 5.51 0.197 1.21 0.503 2.41 0.913 3.57 0.197 0.788-0.128 0.516-2.52 4.63-0.344 0.581-0.443 0.915-1.05 0.994-0.194 0.01-0.386-0.044-0.547-0.154s-0.28-0.27-0.34-0.455c-1.14-3.56-2.71-6.97-4.68-10.2-1.87-3.13-4.34-5.86-7.28-8.03-0.674 0.211 0.807-0.229-2.69 0.911-1.49 0.47-2.25 0.805-2.51 0.883-0.196 0.043-0.402 0.017-0.582-0.072-0.18-0.09-0.324-0.239-0.408-0.422-3.84-8.44-5.68-12-5.68-12.6 0.0168-0.203 0.106-0.394 0.252-0.537 0.916-0.997 2-1.82 3.21-2.44 0.506-0.277 1.03-0.511 1.58-0.699 0.192-0.019 0.385 0.024 0.55 0.125 0.165 0.1 0.293 0.251 0.364 0.431 0.122 0.416 0.0345 0.438-0.0588 0.924-0.0389 0.156-0.0482 0.317-0.0274 0.476v0.029c0.0028 0.017 0.0067 0.034 0.0118 0.051v0.015c0.0088 0.032 0.0192 0.063 0.0313 0.094v7e-3l0.0071 8e-3 0.0062 0.015v7e-3c0.0074 0.01 0.0142 0.02 0.0204 0.03v0.023l0.0211 0.022h0.0071v7e-3h7e-3v7e-3l0.0071 4e-3h7e-3l0.0102 0.011h0.0071l7e-3 8e-3 0.0212 0.012 7e-3 7e-3c0.0165 9e-3 0.0079 0 0.0243 0.012l0.0071 8e-3 0.0391 0.016 0.0102 8e-3 0.0423 0.015 0.011 8e-3c0.0329 0.014 0.126 0.041 0.157 0.051h0.0181c0.0329 0.01 0.0133 0 0.0462 0.013h0.018l0.0321 8e-3h0.018l0.018 5e-3c2.1 0.091 3.31-0.834 5.01-2.03 4.61-3.4 8.98-8.22 9.8-8.8 0.799-0.345 10.2-0.819 14.9 0.168 3.96 0.876 8.67 2.57 11.8 5.17l8e-3 -7e-3c0.558 0.518 0.275 0.471-2.74 5.43zm-2.05 1c0.313-0.581 3.59-5.67 3.74-5.84-2.86-2.1-7.07-3.43-10.5-4.14-2.46-0.604-7.84-0.483-10.4-0.387-0.71 0.039-3.13 0.166-3.83 0.253-5.14 4.95-6.4 6.34-10.2 9.06-1.17 0.917-2.53 1.55-3.98 1.86-1.03 0.183-2.37 0.149-3.13-0.576-0.367-0.332-0.612-0.777-0.696-1.26-0.804 0.431-1.54 0.973-2.19 1.61 1.2 2.69 4.52 9.76 5 10.8 0.791-0.313 3.4-1.1 4.17-1.41 1.07-0.392 0.899-0.483 2.26 0.514 2.76 2.13 5.12 4.74 6.97 7.71 1.83 2.9 3.35 5.98 4.53 9.2 0.0525-0.085 1.05-1.74 1.58-2.49-0.916-2.86-1.75-6.9 0.176-9.24 0.676-0.793 1.62-1.32 2.65-1.48-0.141-2.21 0.466-4.4 1.72-6.23 0.328-0.408 0.715-0.763 1.15-1.05 0.926-0.603 2.01-0.909 3.12-0.878-0.121-2.45 0.353-5.79 2.47-6.98 1.26-0.722 3.35-0.686 5.44 0.943z"/><path d="m103 221c-3.05-2.09-5.47-4.98-6.98-8.36-1.51-3.38-2.05-7.11-1.56-10.8-6.65 3.77-13.6 5.7-21.2 3.91 1.18 5.21 2.38 10.4 3.52 15.6 2.96-0.104 17.6-0.278 26.5-0.229"/><path d="m94.3 201c0.201 0.035 0.383 0.138 0.517 0.292s0.211 0.348 0.219 0.552c-0.0117 0.165-0.0713 0.641-0.0783 0.725-0.236 2.22-0.0683 4.47 0.494 6.63 0.661 2.75 1.89 5.33 3.61 7.57h7e-3c1.17 1.46 2.51 2.77 3.99 3.9l0.291 0.121c0.525 1.24 0.573 0.894-10.7 1.12-11.7 0.342-3.62 0.029-16.1 0.376-0.207 8e-3 -0.409-0.057-0.573-0.183-0.163-0.127-0.277-0.307-0.321-0.509-3.74-16.8-3.6-15.6-3.5-16.1 0.0577-0.191 0.178-0.358 0.343-0.473 0.164-0.114 0.362-0.17 0.562-0.159 2.83 0.672 5.76 0.838 8.64 0.489 3.19-0.423 6.29-1.36 9.18-2.77 3.04-1.43 2.83-1.66 3.51-1.62zm-18.6 6.17c-0.0854-0.01-1.56-0.197-1.64-0.244 0.606 2.66 2.48 10.9 3.06 13.6 0.68-0.196 20.2 0.024 23.9 0.084-0.092-0.052-0.779-0.598-1.2-0.958-0.692-0.602-1.34-1.25-1.94-1.95-3.4-3.94-5.14-9.04-4.84-14.2-5.43 2.82-11.3 4.49-17.4 3.73z"/></g><g fill="#212429"><path d="m160 139c0.391 0.285 0.81 0.53 1.25 0.733l0.494 0.253c0.822 0.485 1.72 0.819 2.66 0.986 0.896 0.166 1.81 0.213 2.72 0.14 1.07-0.088 2.14-0.279 3.18-0.57 0.37-0.108 0.729-0.254 1.07-0.437l0.425-0.078 0.345 0.192h4e-3l0.078 0.392-0.204 0.381c-0.357 0.312-0.743 0.589-1.15 0.827-1.01 0.563-2.12 0.912-3.27 1.02-1.66 0.178-3.33 8e-3 -4.92-0.499-0.644-0.215-1.26-0.499-1.84-0.85l-0.283-0.203c-0.532-0.444-0.986-0.974-1.34-1.57l-0.105-0.419 0.138-0.344 0.351-0.103 0.409 0.143z"/><path d="m162 140c0.266 0.506 0.162 0.119 0.377 1.46 0.212 1.5 0.261 3.02 0.145 4.54 0.018 0.21-0.026 0.422-0.128 0.607-0.392 0.563-0.747 0.416-1.72 0.459-2.81 0.146-5.61 0.464-8.38 0.953-1.32 0.24-0.783 0.247-1.46 0.157l-0.272-0.294c0-0.011 0.041-0.392 0.043-0.406l0.313-0.293c2.26-1 4.68-1.59 7.15-1.73 2.94-0.235 2.7-0.09 2.71-0.207 0-0.156 0.011-0.824 0.012-1.25-0.024-0.844 0.032-1.69 0.168-2.52 5e-3 -0.039 0.164-1.04 0.166-1.08l0.197-0.381 0.339-0.162 0.356 0.158z"/><path d="m188 108c0.333 0.176 0.656 0.369 0.967 0.58 3.98 2.91 3.73 7.76-0.286 10.6-1.18 0.824-2.51 1.42-3.92 1.75 0.033 3.18-0.453 6.34-1.44 9.36-0.777 2.44-1.98 4.73-3.54 6.75 8e-3 0.099 0.059 4.15 0.286 7.68 2.92 0.813 5.78 1.82 8.57 3 0.915 0.432 0.683 0.273 1.05 0.678l-0.011 0.414-0.308 0.283c-0.084 0-0.51-8e-3 -0.425-8e-3 -3.11-1.18-6.31-2.15-9.56-2.88-0.155-6e-3 -0.308-0.046-0.446-0.117-0.426-0.273-0.422-0.565-0.47-1.08-0.183-1.72-0.367-4.16-0.445-7.5 0.013-1.38-9e-3 -1 0.688-1.96l0.296-0.413c0.764-1.11 1.41-2.29 1.94-3.53 1.5-3.6 2.19-7.48 2.04-11.4-7e-3 -0.194 0.05-0.385 0.163-0.543s0.274-0.275 0.46-0.332c0.644-0.097 1.28-0.257 1.89-0.477 2.54-1.05 4.69-2.73 4.54-5.46 0-0.025-0.011-0.121-0.012-0.127-0.083-0.792-0.364-1.55-0.818-2.2-0.495-0.729-1.14-1.34-1.9-1.79-0.962-0.604-2.07-0.937-3.21-0.962l-0.386-0.156-0.172-0.365 0.147-0.376c0.437-0.211 0.313-0.187 0.683-0.197 1.26-0.033 2.5 0.242 3.62 0.801z"/><path d="m153 94.5c2.28 1.19 4.46 2.55 6.99 3.15 5.65 1.34 12.2-0.913 16.4-4.76 0.614 6.29 1.86 13.4 8.66 15.1 0.449-3.91-0.016-8.55-1.76-12.1-1.99-4.08-6.29-7.09-10.7-8.1-3.73-0.891-7.63-0.701-11.3 0.548-1.49 0.563-2.81 1.56-4.35 1.99-0.642 0.178-1.56-0.116-1.46-0.945 0.129-0.91 0.588-1.74 1.29-2.34 2.18-1.63 4.7-2.76 7.36-3.29 3.93-0.726 10.1 0.0588 13.6 2.04 3.55 2.17 6.42 5.3 8.26 9.03 1.62 0.0784 2.58 0.356 3.95-0.779 1.64-1.36 0.807-4.23-4.96-4.94 1.08-0.333 2.11-0.809 3.06-1.42 0.996-0.494 1.83-1.26 2.42-2.2 1.03-2.07-0.414-4.06-2.61-4.3-2.3-0.245-4.85 1.46-6.41 3.03 1.14-1.78 2.57-3.4 3.21-5.45 0.82-2.63-0.31-4.4-2.92-3.08-2.08 1.05-3.41 3.39-4.67 5.25 0.771-1.38 1.36-2.85 1.74-4.38 0.481-2.35 0.063-7.23-3.64-6.1-3.14 0.96-4.86 4.57-5.86 7.68 0.257-2.37 1.24-7.99 0.116-10.3-0.141-0.337-0.362-0.635-0.643-0.867-0.282-0.233-0.616-0.394-0.973-0.469-0.358-0.0751-0.728-0.0623-1.08 0.0374-0.352 0.0997-0.674 0.283-0.939 0.535-0.384 0.343-0.72 0.736-0.999 1.17-1.92 2.9-1.94 6.54-2.19 9.88-0.548-2.35-1.28-5.01-3.1-6.74-2.79-2.63-5.11 0.972-5.29 3.65-0.176 2.63 0.843 5.01 1.68 7.44-1.5-2.19-2.59-5.43-4.9-6.96-2.42-1.6-4.34 0.794-4.32 3.24 0.024 2.86 2.18 5.73 3.72 8.04-1.83-1.71-4.2-4.12-6.93-4.03-1.9 0.0642-3.89 4.23-0.184 8.27 2.54 2.78 5.99 2.82 9.41 3.12"/><path d="m185 75.2c1.08 1.62 0.36 3.86-0.564 5.57 0.024-0.0094 0.106-0.0447 0.135-0.0572 6.16-2.4 9.1 3.89 4.82 6.85-0.369 0.28-1.36 0.905-1.78 1.14 0.53 0.173 1.04 0.396 1.53 0.665 2.35 1.28 3.15 3.93 0.586 5.61-1.24 0.796-2.18 0.719-3.62 0.627-0.548-0.0352-0.548-0.0133-0.817-0.139-0.544-0.359-0.104-0.266-1.58-2.54-1.55-2.33-3.53-4.35-5.82-5.95-4.19-2.7-11.2-3.28-15-2.21-1.89 0.517-3.68 1.34-5.3 2.43-0.444 0.263-0.825 0.622-1.11 1.05-0.214 0.333-0.357 0.706-0.42 1.1 0.084 0.0299 0.174 0.0398 0.262 0.029 1.08-0.368 2.12-0.842 3.11-1.42 7.23-3.62 19.4-1.81 24.2 7.23 0.814 1.64 1.38 3.39 1.69 5.2 0.423 2.36 0.519 4.76 0.285 7.14-0.064 0.53-0.037 0.59-0.209 0.886-0.111 0.152-0.268 0.265-0.447 0.322-0.18 0.056-0.374 0.053-0.552-9e-3 -0.628-0.163-1.24-0.382-1.83-0.653-4.57-2.2-6.01-6.54-6.86-11.6-0.07-0.47-0.24-1.66-0.287-2.22-3.48 2.69-7.73 4.2-12.1 4.3-5.5 0.0345-8.68-2.68-10.9-3.7-0.443-0.54 0.219-0.178-2.96-0.548-3.54-0.401-6.08-1.49-8-4.53-0.238-0.39-0.444-0.798-0.618-1.22-0.358-0.856-0.524-1.78-0.488-2.71 0.079-1.78 1.1-3.84 2.94-3.88 1.38 0.0185 2.72 0.453 3.85 1.25-0.972-1.85-1.73-3.79-1.29-5.84 0.643-2.38 2.06-3.28 3.41-3.28 1.66 0.0172 2.96 1.35 3.98 2.65-0.037-0.128-0.072-0.963-0.079-1.05-0.055-4.48 3.29-7.93 6.44-5.31 0.977 0.875 1.76 1.95 2.29 3.15 0.197-2.25 0.956-4.41 2.21-6.28 1.07-1.52 2.69-2.29 4.37-1.53 2.4 1.21 2.22 4.34 2.1 7.02 0.243-0.354 0.506-0.694 0.788-1.02 2.85-3.07 6.63-3.54 7.86 0.0893 0.405 1.29 0.535 2.64 0.382 3.98 0.677-0.618 1.47-1.09 2.34-1.39 1.56-0.485 2.61-0.0455 3.14 0.746zm-17.6 7.3c3.48 0.0532 7.73 0.8 10.7 2.51 2.56 1.59 4.78 3.67 6.55 6.11 0.64 0.866 1.21 1.78 1.7 2.74 0.544 0.0642 1.09 0.0642 1.64 0 0.575-0.138 1.09-0.463 1.46-0.924l0.012-0.0134 0.015-0.0266 4e-3 -0.0133 0.023-0.0392 5e-3 -0.0125 8e-3 -0.0125v-0.0126l8e-3 -0.0133c0.016-0.0517 0.026-0.0783 0.037-0.113v-0.0125l9e-3 -0.0243v-0.0133l4e-3 -0.0118v-0.0258l4e-3 -0.0126 6e-3 -0.129v-0.0956c-0.01-0.0478-0.016-0.0783-0.027-0.129l-6e-3 -0.0149v-0.0298l-6e-3 -0.0156v-0.0149l-0.026-0.0619c-0.021-0.116-0.293-0.806-1.76-1.45-0.945-0.378-1.94-0.628-2.94-0.745-0.176 0.0016-0.348-0.0471-0.497-0.14s-0.268-0.227-0.343-0.386c-0.085-0.184-0.104-0.391-0.054-0.587s0.166-0.369 0.328-0.49c0.275-0.173 0.677-0.235 1.56-0.62 0.896-0.392 3-1.58 3.5-2.42 0.203-0.267 0.335-0.58 0.385-0.911s0.017-0.669-0.097-0.984-0.305-0.596-0.556-0.818c-0.25-0.222-0.552-0.378-0.878-0.453-1.23-0.276-2.51-0.0566-3.58 0.61-1 0.544-1.91 1.23-2.71 2.04-0.145 0.145-0.335 0.236-0.539 0.256-0.204 0.0191-0.409-0.0323-0.581-0.146-0.17-0.114-0.296-0.284-0.354-0.481-0.059-0.197-0.047-0.408 0.033-0.597 0.677-1.29 3.92-4.87 3.34-7.21l-0.021-0.0165c-2e-3 -0.014-5e-3 -0.0278-9e-3 -0.0415l-6e-3 -0.0133v-0.0133l-7e-3 -0.0133v-0.0134l-7e-3 -0.0133v-0.0125c-0.112-0.215-0.127-0.235-0.13-0.241l-8e-3 -7e-3v-0.0071l-7e-3 -0.0055v-0.0062l-7e-3 -0.0055v-0.0055l-7e-3 -0.0055-4e-3 -0.0047-7e-3 -0.0047v-0.0047l-7e-3 -0.0039v-0.0047h-0.014v-0.0039h-7e-3v-0.0039l-0.014-0.0071-0.028-0.0125c-0.105-0.0394-0.218-0.057-0.33-0.0517-0.934 0.135-1.8 0.572-2.46 1.24-2.93 2.93-2.72 4.79-4.11 4.39-0.186-0.0703-0.343-0.201-0.446-0.372-0.103-0.171-0.145-0.371-0.12-0.568 0.129-0.583 1.62-2.88 1.84-5.02 0.139-1.33 0.034-3.5-1.01-4.36-0.861-0.682-2.41 0.101-3.25 0.768-1.58 1.16-2.7 3.55-3.36 5.4-0.34 0.947-0.29 1.09-0.773 1.34-0.191 0.0781-0.403 0.0881-0.6 0.0282-1.38-0.557 0.036-2.05 0.011-8.37-5e-3 -1.09-0.187-2.68-1.18-3.14-0.229-0.106-0.485-0.14-0.733-0.0972-0.612 0.177-1.13 0.582-1.46 1.13-1.86 2.75-1.96 5.68-2.2 9.23-0.037 0.565-0.021 0.774-0.365 1.09-0.153 0.119-0.342 0.183-0.536 0.182-0.195-1e-3 -0.383-0.0671-0.535-0.188-0.549-0.522-0.211-1.01-1.33-3.96-0.046-0.0995-0.199-0.498-0.338-0.755-0.495-1.05-1.68-2.75-2.85-2.78-0.318 0.0391-0.621 0.151-0.888 0.328-0.266 0.177-0.488 0.413-0.648 0.69-2.04 2.99-0.556 6.34 0.579 9.77 0.079 0.16 0.104 0.342 0.07 0.517-0.035 0.175-0.126 0.334-0.261 0.452-0.136 0.118-0.308 0.187-0.488 0.194s-0.358-0.0468-0.503-0.154c-1.03-0.909-2.94-6.49-5.46-7.28-0.231-0.0847-0.48-0.11-0.723-0.0727-0.243 0.0369-0.473 0.135-0.668 0.284-3.68 3.34 2.37 9.71 2.51 10.7 0.01 0.119-0.012 0.239-0.062 0.347s-0.128 0.202-0.225 0.271-0.211 0.112-0.33 0.125-0.239-0.0064-0.348-0.0544c-0.719-0.385-3.5-4-6.53-4.01-0.216-0.0158-0.431 0.0392-0.613 0.157-1.98 1.52-1.3 5.46 1.31 7.61 2.13 1.97 5.31 2.14 8.13 2.39 0.406 0.0368 0.25-0.0086 0.697 0.226l0.086 0.265c2.96 1.58 5.43 2.98 8.43 3.27 3.05 0.258 6.11-0.278 8.89-1.56 1.93-0.854 3.71-2.01 5.27-3.43 0.128-0.116 0.291-0.185 0.464-0.195 0.172-0.0101 0.343 0.0392 0.484 0.14 0.548 0.463 0.13 0.54 0.85 4.51 0.3 1.82 0.833 3.6 1.58 5.28 1.21 2.36 2.48 3.81 5.02 4.78 0.189-2.78-0.106-5.58-0.874-8.26-0.389-1.35-0.982-2.64-1.76-3.81-3.05-4.36-8.47-7.14-15.3-6.63-4.76 0.365-6.02 1.89-8.4 2.79-0.338 0.169-0.709 0.264-1.09 0.281-0.378 0.0165-0.755-0.0467-1.11-0.185-0.227-0.102-0.432-0.248-0.603-0.429-0.244-0.27-0.394-0.613-0.426-0.976-1e-3 -0.693 0.182-1.37 0.53-1.97 0.539-0.94 1.34-1.7 2.31-2.19 1.53-0.952 3.19-1.7 4.92-2.21 1.71-0.506 3.49-0.74 5.27-0.694z"/></g><path d="m145 146c0.243 0.506 0.157 0.166 0.273 1.29 0.256 2.42 0.373 4.85 0.353 7.28 0.19 9.53 0.265 8.8 0.335 15.5-0.079 6.46 0 5.78-0.627 6.09h-4e-3l-0.379-0.165c-0.231-0.522-0.168-0.225-0.26-1.33-0.57-6.83-0.505-7.76-0.638-11.9-0.278-11.8-0.294-11.5-0.164-13.7 0.065-1.09 0.203-2.66 0.214-2.74l0.179-0.382 0.357-0.162h7e-3l0.354 0.163z" fill="#FD710F"/><path d="m195 144 0.353 0.174 0.167 0.383c0.377 3.69 0.245 18.6 0.221 19.5-0.022 3.63-0.314 7.26-0.874 10.8-0.206 1.42-0.171 1.18-0.416 1.6l-0.391 0.12h-7e-3c-0.713-0.426-0.414 0.186-0.241-5.74 0.47-17-0.164-18.6 0.541-25.6 0.107-0.905 0.032-0.627 0.275-1.11l0.364-0.15h8e-3z" fill="#FD710F"/><g fill="#212429">
<path d="m170 171c0.492 0.94 0.288 0.367 0.489 2.76 0.118 0.752 0.055 1.52-0.184 2.24l-0.218 0.435-0.3 0.188h-7e-3c-0.401-0.204-0.267-0.078-0.575-0.57-0.236-0.532-0.384-1.1-0.439-1.68-9e-3 -0.103-0.197-2.33-0.153-2.62 0.039-0.175 0.1-0.344 0.18-0.504 0.157-0.327 0.011-0.132 0.652-0.795 9e-3 8e-3 0.545 0.528 0.555 0.54z"/><path d="m102 167c1.92 2.09 0.265 0.256 3.23 4.12 4.58 5.28 4.33 4.72 4.11 5.46l-0.363 0.157-0.432-0.127c0.342 0-1.96-0.627-5.67-5.64-0.526-0.66-0.985-1.37-1.37-2.12-0.185-0.43-0.339-0.874-0.458-1.33 0.024-0.554-0.079-0.313 0.209-0.738h7e-3l0.358-0.016 0.369 0.226z"/><path d="m106 161c0.455 0.514 0.873 1.06 1.25 1.63 2.3 4.13 2.74 4.56 3.63 6.04 1.6 2.88 1.32 2.2 1.46 2.85l-0.181 0.35-0.386 0.078-0.396-0.204c-0.342-0.354-1.19-1.21-1.66-1.82-1.49-2.07-2.84-4.24-4.04-6.49-0.265-0.625-0.478-1.27-0.637-1.93 0.023-0.54-0.057-0.348 0.23-0.73l0.361-6e-3 0.362 0.238z"/><path d="m116 164-0.407-0.184c-0.666-0.584-1.29-1.22-1.86-1.89-1.11-1.48-2.04-3.08-2.78-4.78-0.45-0.872-0.666-1.85-0.627-2.83 0-0.226-0.026-0.091 0.13-0.593l0.278-0.226h7e-3l0.346 0.084c0.344 0.374 0.288 0.298 0.373 0.47 0.055 0.105 0.679 1.23 0.735 1.42 1.22 3.24 2.01 3.84 3.81 6.94 0.526 0.88 0.392 0.537 0.539 1.13l-0.164 0.357v4e-3l-0.383 0.1z"/><path d="m124 153h7e-3l0.269 0.293c0.015 1.91-5.29 11.9-4.66 27.3 0.05 2.38 0.37 5.86 0.481 7.21 0.987 9.46 1.35 8.86 1.14 9.82-7e-3 0-0.337 0.235-0.343 0.235-5e-3 0-0.398-0.085-0.404-0.086l-0.245-0.35c-1-4.14-1.73-8.34-2.16-12.6-0.399-4.88-0.329-9.78 0.208-14.6 0.227-2.17 0.862-5.26 0.876-5.35 0.67-3.45 1.78-6.8 3.31-9.97 0.895-1.87 0.778-1.6 1.13-1.91l0.397 0.01z"/><path d="m100 179 0.28 0.29c0.023 1.35-0.235-0.401-1.47 6.4-1.06 5.8-3.92 14.3-1.87 23 0.578 2.58 1.71 5 3.33 7.1 1.67 2.1 3.87 3.71 6.37 4.67 2.2 0.847 4.56 1.19 6.9 0.99 1.84-0.213 3.64-0.687 5.35-1.41 5-2.03 8.12-6.55 10.7-11.2 2.66-4.89 1.91-4.02 2.53-4.57l0.414 0.015 0.283 0.313c-0.024 0.548 0.038 0.286-0.299 1.05-1.69 3.78-4.11 8.76-7.06 11.8-1.83 1.96-4.07 3.5-6.55 4.51-2.49 1.01-5.16 1.46-7.84 1.33-3.38-0.227-6.62-1.45-9.3-3.52-2.68-2.06-4.7-4.88-5.78-8.09-1.33-3.96-1.81-8.16-1.41-12.3 0.725-7.4 1.6-8.89 2.46-12.5 0.212-0.812 1.13-5.22 2.26-7.47l0.302-0.287h0.404l8e-3 1e-3z"/><path d="m140 150 0.194 0.362-0.132 0.392c-0.414 0.226-0.322 0.199-0.566 0.235-3.35 0.477-7.02 2.92-9.7 4.98-4.62 3.56-7.43 7.52-10.8 12.1-6e-3 6e-3 -0.343 0.241-0.35 0.245l-0.391-0.035-7e-3 -4e-3 -0.235-0.313c0.034-0.507 0.013-0.392 0.089-0.563 1.23-2.81 2.94-5.39 5.05-7.62 2.14-2.43 4.56-4.6 7.2-6.47 1.5-1.09 3.14-1.97 4.87-2.62 0.083-0.029 1.39-0.476 1.52-0.476 0.938-0.236 1.9-0.372 2.86-0.406l0.406 0.137z"/><path d="m199 151c5.22 1.42 10.8 3.65 15 7.14 3.53 2.85 5.98 5.84 8.49 11.5 4.97 10.6 6.78 21.4 7.64 33.1 0.145 2.55 0.667 5.33 1.11 9.14 0.22 1.81 0.271 3.64 0.152 5.46l-0.189 0.378-0.392 0.142h-8e-3l-0.37-0.186-0.145-0.391c0.161-3.71-0.869-8.03-1.32-11-0.815-4.96-0.89-11.2-2.9-20.3-0.902-4.36-2.21-8.62-3.92-12.7-1.46-3.41-3.49-7.86-6.02-10.6-0.714-0.795-1.48-1.55-2.28-2.25-3.98-3.58-9.85-6.43-15.2-8.3l-0.314-0.273c0-0.012-0.04-0.399-0.04-0.41l0.263-0.306 0.415-0.052z"/><path d="m207 222c-0.348-0.401-0.256-0.191-0.872-1.59-0.392-0.904-0.268-0.539-1.61-5.14-0.207-0.617-0.272-1.27-0.191-1.92l0.376-0.669 0.669 0.375c0.262 0.382 0.491 0.784 0.687 1.2 0.046 0.122 1.3 4.37 1.42 4.93 0.063 0.275 0.192 1.22 0.202 1.35 0.087 1.02 0.104 0.688-0.017 1.29l-0.286 0.258c-0.011-1e-3 -0.372-0.079-0.382-0.081z"/></g><path d="m137 221c-1.69-14.3-4.69-29.2 2.22-42.7 6.96-1.61 49.1-1.79 62.8-0.627 4.81 14.7 1.54 29.6-1.3 44.3" fill="#FD710F"/><path d="m201 177c1 0.064 1 0.069 1.26 0.21 0.367 0.283 0.353 0.474 0.578 1.16 4.39 14.4 1.29 28.5-1.68 43.3-0.17 0.83-0.078 0.599-0.377 1.04l-0.408 0.087h-7e-3l-0.347-0.235c-0.123-0.586-0.138-0.142 0.168-1.8 2.55-14 2.15-13.1 2.23-13.1 1.44-10.5 1.63-18.9-1.3-28.8-0.01 0-0.44-0.034-3.3-0.208-12.8-0.558-25.7-0.579-37.8-0.359-2.67 0.049-17.9 0.407-20.5 1.14-1.98 4.07-3.24 8.46-3.72 13-1.38 12.5 1.82 27.6 1.32 29.3l-0.356 0.204h-4e-3l-0.391-0.114-0.209-0.36c-2.03-14.6-5.08-29.6 1.81-42.8 0.421-0.862 0.458-0.773 2.54-1.08 12.6-1.44 49.5-1.34 60.5-0.412z" fill="#FD710F"/><g fill="#212429"><path d="m95 88.2c0.0886 0.0579 0.0071 0.0603 0.428-0.0627 3.03 0.258 6.33 4.11 5.58 7.01l-9e-3 0.047c-1.08 4.16-6.78 2.86-9.03-0.844-0.458-0.709-0.75-1.51-0.854-2.35-0.0779-0.598-0.0019-1.2 0.221-1.76 0.251-0.733 0.764-1.35 1.44-1.72 0.677-0.375 1.47-0.485 2.22-0.309zm-0.134 1.08c-0.319-0.0088-0.635 0.0597-0.922 0.2-0.304 0.174-0.559 0.421-0.744 0.718s-0.293 0.635-0.315 0.984c-8e-4 0.034-0.0047 0.0678-0.0117 0.101-0.202 1.32 1.04 3.61 3.66 4.54 0.507 0.191 1.06 0.242 1.59 0.149 0.286-0.0809 0.544-0.237 0.748-0.452 0.204-0.215 0.347-0.482 0.412-0.771 0.112-0.471 0.0802-0.964-0.0901-1.42-0.176-0.526-0.413-1.03-0.705-1.5-0.348-0.641-0.82-1.21-1.39-1.66-0.569-0.456-1.22-0.795-1.92-0.996l-0.309 0.107z"/><path d="m103 83.7c1.55 0.0329 3.17 1.87 3.08 3.78-0.101 2.32-3.21 3.68-5.2 0.73-0.297-0.419-0.473-0.911-0.509-1.42s0.069-1.02 0.303-1.48c0.091-0.168 0.202-0.324 0.331-0.464 0.662-0.616 0.46-0.289 0.618-0.606 0.183-0.176 0.399-0.314 0.635-0.406 0.236-0.0923 0.488-0.137 0.742-0.132zm-0.548 1.34-0.053 0.115c-0.141 0.16-0.242 0.352-0.295 0.558v0.0181l-8e-3 0.0172c-0.015 0.0604-0.025 0.122-0.03 0.184l-4e-3 0.0164v0.312l0.01 0.0478v0.0164c2e-3 0.0146 5e-3 0.0289 8e-3 0.0431v0.0055l6e-3 0.0329v0.0164c0.01 0.0564 0.014 0.0784 0.03 0.144v0.0047c0 0.0211 0.014 0.0783 0.017 0.103l6e-3 0.0172 6e-3 0.0345 7e-3 0.0172v0.018l7e-3 0.0173v0.0172l7e-3 0.018v0.0173c0.341 0.928 0.993 1.32 1.43 1.29 0.177-0.0164 0.346-0.0842 0.485-0.195l0.038-0.0329v-0.0071c0.017-0.0174 0.034-0.0359 0.049-0.0556v-0.0078l8e-3 -0.0071 8e-3 -0.0149 7e-3 -0.0078 0.024-0.0494 8e-3 -0.0086v-0.0094l8e-3 -0.0094v-0.0188c7e-3 -0.018 9e-3 -0.0227 0.019-0.0501v-0.011l8e-3 -0.0219v-0.0251l5e-3 -0.0117v-0.0126l4e-3 -0.0125v-0.0125l5e-3 -0.0126v-0.0266l5e-3 -0.0125v-0.279l-6e-3 -0.0345v-0.0172c-0.101-0.888-0.953-2.4-1.82-2.12h-3e-3z"/><path d="m124 87.3c0.425 0.0197 0.847 0.0845 1.26 0.193 0.622 0.122 1.2 0.394 1.7 0.791 0.494 0.397 0.884 0.908 1.14 1.49 0.849 1.89-0.476 3.7-3.07 3.23-1.06-0.166-2.05-0.597-2.9-1.25-1.9-1.71-0.953-4.46 1.87-4.45zm0.431 1.46c-0.314 0.0583-0.618 0.159-0.905 0.299-0.056 0.0248-0.11 0.0528-0.162 0.0838-0.313 0.176-0.302 0.203-0.378 0.287-8e-3 0.0098-0.015 0.02-0.022 0.0306l-4e-3 0.0039v0.0055l-8e-3 0.0086v0.0141l-8e-3 0.0094v0.0188l-4e-3 0.0047v0.244l6e-3 0.0204v0.011l7e-3 0.0219v0.011c8e-3 0.0297 0.018 0.0681 0.025 0.0979l6e-3 0.0117 0.01 0.0329 6e-3 0.0118 7e-3 0.0219 7e-3 0.011v0.0109l6e-3 0.011v0.0102l0.02 0.0329v0.011l0.041 0.0658 0.01 0.0109 0.014 0.022 0.01 0.0109 7e-3 0.011 0.01 0.011 7e-3 0.0109 0.02 0.0227 7e-3 0.011c0.721 0.765 2.66 1.27 3.28 0.906l0.03-0.0172v-0.0047l0.015-0.0078 7e-3 -0.0079 7e-3 -0.0039c0.031-0.0298 0.02-0.018 0.038-0.0352l7e-3 -0.0063 7e-3 -0.0071v-0.0548l4e-3 -0.0055v-0.0164l8e-3 -0.0118v-0.129c0.016-0.232-0.026-0.463-0.122-0.674-0.234-0.619-0.667-1.14-1.23-1.49h-7e-3c-0.26-0.022-0.522-0.0045-0.776 0.0517z"/><path d="m131 141c-1.46-0.488-2.77-1.35-3.8-2.49-2.56 4-4.97 7.3-8.12 11.7-0.705 0.99-2.25 3.4-1.46 4.68 1.31 2.14 3.79-1.15 4.69-2.39 3.43-4.75 4.97-6.8 8.7-11.6"/><path d="m127 137c0.357 0.104 0.384 0.18 0.622 0.461 0.824 0.947 1.85 1.7 3 2.2l0.402 0.101 0.196 0.366c-0.073 0.265-0.062 0.192-0.053 0.318l-0.047 0.047-0.015 0.055c-8.12 11.2-8.48 12.1-9.91 13.6-0.676 0.848-1.64 1.42-2.7 1.62-0.373 0.017-0.744-0.065-1.08-0.239-0.33-0.174-0.609-0.433-0.805-0.75-0.249-0.406-0.399-0.864-0.437-1.34-0.039-0.474 0.035-0.951 0.216-1.39 0.59-1.92 2.09-3.69 5.41-8.37 4.75-6.84 4.45-6.74 5.2-6.68zm-8.86 15.4c-0.149 0.36-0.208 0.752-0.171 1.14v0.015c9e-3 0.031 0.018 0.053 0.033 0.099l0.012 0.021v0.018c0.032 0.053 0.069 0.103 0.108 0.151 0.022 0.028 0.062 0.07 0.063 0.071h8e-3l7e-3 7e-3 5e-3 6e-3h0.015l0.011 0.01h7e-3l0.016 0.014h7e-3l0.015 6e-3h0.036l0.087-6e-3 0.01-5e-3h0.014l0.011-4e-3h0.028l0.011-5e-3h0.011l0.032-0.013h0.01c0.033-0.011 0.017-8e-3 0.05-0.018l0.01-8e-3c0.074-0.028 0.145-0.062 0.213-0.102 1.2-0.711 2.49-2.67 3.33-3.83 2.24-3.1 5.22-6.7 7.52-9.48-0.411-0.15-0.81-0.329-1.2-0.536-0.514-0.268-1-0.588-1.45-0.955-3.52 5.84-8.22 11.4-8.87 13.4h3e-3z"/><path d="m143 94.1c6.39 0.173 12.5 2.84 16.9 7.42 4.46 4.59 6.94 10.7 6.93 17.1 1e-3 2.17-0.268 4.33-0.8 6.43v0.011c-1.51 5.86-5.08 11-10.1 14.4s-11 5-17 4.36c-2.1-0.205-4.16-0.685-6.13-1.43-4.75-1.76-8.86-4.92-11.8-9.05s-4.56-9.05-4.66-14.1c-0.068-3.81 0.751-7.59 2.39-11 1.11-2.33 2.57-4.47 4.34-6.36 2.52-2.71 5.63-4.81 9.07-6.17s7.15-1.91 10.8-1.64zm-3.9 1.98c-3.84 0.497-7.49 1.96-10.6 4.26-3.12 2.3-5.6 5.34-7.22 8.86-1.63 3.56-2.3 7.48-1.95 11.4 0.464 5.68 3.08 11 7.31 14.8s9.76 5.87 15.4 5.74 11.1-2.42 15.2-6.42c4.06-4 6.44-9.39 6.65-15.1 0.045-1.32-0.022-2.65-0.199-3.96-0.353-2.53-1.14-4.99-2.34-7.25-2.21-4.31-5.71-7.82-10-10-3.74-2.03-8.03-2.83-12.2-2.29h-3e-3zm3.9-1.98c-0.341-7e-3 -0.342-0.0078 0 0z"/></g></g><path d="m149 116c0.104-2.39-1.26-4.39-3.05-4.46-1.79-0.078-3.33 1.79-3.43 4.18-0.104 2.39 1.26 4.39 3.05 4.46 1.79 0.078 3.33-1.79 3.43-4.18z" fill="#212429"/><g clip-rule="evenodd" fill-rule="evenodd"><g fill="#212429"><path d="m146 111c0.542-0.022 1.08 0.051 1.6 0.218 1.81 0.694 3.11 2.55 3 5.1-0.018 0.701-0.137 1.4-0.353 2.06-0.24 0.826-0.679 1.58-1.28 2.2-0.599 0.616-1.34 1.08-2.16 1.34-0.672 0.17-1.38 0.165-2.05-0.014-0.669-0.18-1.28-0.528-1.78-1.01-0.61-0.583-1.08-1.3-1.37-2.09-1.38-3.58 0.858-7.95 4.39-7.8zm0.042 1.84c-1.75 0.314-2.25 2.79-1.82 4.51 0.059 0.387 0.218 0.75 0.461 1.06s0.562 0.542 0.925 0.687h0.018l0.014 4e-3h0.05l0.018 5e-3h0.203c0.333-0.096 0.639-0.271 0.89-0.511s0.44-0.537 0.552-0.866c0.843-1.87-0.176-4.56-1.31-4.9l-1e-3 0.014z"/><path d="m159 111 0.112 0.413c-0.04 1.62-0.177 3.25-0.41 4.86-0.319 2.54-0.308 3.83-1.05 10.1-0.179 0.689-0.271 1.4-0.276 2.11l6e-3 0.036v0.018c0.01 0.074 0.029 0.146 0.055 0.216l7e-3 7e-3v0.011l7e-3 8e-3v0.011l7e-3 0.011 7e-3 7e-3c0.097 0.163 0.382 0.291 0.856 0.392 0.274 0.052 0.109-0.019 0.581 0.242l0.139 0.378v4e-3l-0.189 0.359c-0.443 0.169-0.357 0.161-0.649 0.149-0.39 0.026-0.781-0.048-1.14-0.217-0.354-0.168-0.658-0.425-0.884-0.745-0.19-0.35-0.297-0.739-0.313-1.14-0.098-2.13 0.585-6.71 0.739-8.68 0.107-0.979 0.011-0.98 0.483-4.64 0.192-1.27 0.513-2.51 0.96-3.72l0.263-0.332 0.372-0.088c0.012 0 0.306 0.213 0.316 0.22z"/><path d="m139 99.8c0.871-7e-3 1.73 0.216 2.49 0.646 0.337 0.195 0.626 0.461 0.848 0.78s0.371 0.683 0.436 1.07c0.499 3.21-4.84 6.48-7.19 8.48-1.34 1.18-2.53 2.3-4.31 2.54-2.47 0.139-3.26-2.29-2.87-4.71 0.11-0.661 0.333-1.3 0.66-1.88 1.48-2.83 3.91-5.04 6.87-6.25 1.13-0.457 0.962-0.391 1.36-0.373l0.186-0.134c0.497-0.118 1.01-0.175 1.52-0.168zm-1.3 1.25-0.239-0.053c-1.95 1.06-3.69 2.46-5.15 4.13-0.789 0.872-1.44 1.86-1.92 2.93-0.206 0.5-0.31 1.04-0.307 1.58s0.113 1.08 0.325 1.57v0.011l0.01 0.011 0.013 0.023 7e-3 7e-3 0.014 0.023 7e-3 7e-3 7e-3 0.011 0.013 0.015 7e-3 0.011 7e-3 7e-3 0.01 8e-3v8e-3l0.011 7e-3 0.028 0.031h7e-3l0.013 0.014h7e-3l7e-3 8e-3h7e-3l7e-3 7e-3h7e-3l7e-3 8e-3 0.022 0.012 6e-3 7e-3 0.07 0.039h0.011c0.01 7e-3 0.021 0.012 0.032 0.016h7e-3c7e-3 2e-3 0.013 4e-3 0.018 8e-3h0.029c5e-3 3e-3 0.011 6e-3 0.018 8e-3h0.021l0.011 4e-3h0.032l0.148 6e-3h0.079c0.368-0.056 0.723-0.178 1.05-0.358 0.549-0.313 1.06-0.685 1.53-1.11 3.77-3.23 5.69-4.2 7.13-6.29 0.12-0.182 0.225-0.375 0.313-0.574 0.067-0.15 0.112-0.308 0.136-0.47l4e-3 -0.018v-0.051l5e-3 -0.1v-0.091l-6e-3 -0.029v-0.014l-7e-3 -0.03v-0.014c-0.01-0.051-0.018-0.085-0.023-0.113l-7e-3 -0.01-6e-3 -0.029-7e-3 -0.012v-0.014l-7e-3 -0.011v-0.015c-5e-3 -9e-3 -9e-3 -0.017-0.013-0.026v-0.015c-0.105-0.223-0.269-0.412-0.475-0.548-0.084-0.061-0.172-0.118-0.263-0.17l-0.022-9e-3 -0.017-0.011c-0.849-0.387-1.79-0.509-2.71-0.351z"/><path d="m128 118c0.418 0.254 0.348 0.188 0.391 0.314 0.189-0.017 0.07-0.029 0.281 0.03 0.252 0.081 0.493 0.192 0.718 0.331 0.471 0.307 0.868 0.715 1.16 1.19s0.483 1.02 0.548 1.57c0.142 0.937 0.032 1.9-0.319 2.78-0.191 0.574-0.515 1.09-0.945 1.52-0.431 0.424-0.956 0.741-1.53 0.924-0.577 0.183-1.19 0.227-1.78 0.128s-1.16-0.337-1.65-0.696c-1.58-1.07-1.97-3.33-1.34-5.12 0.177-0.661 0.512-1.27 0.976-1.77 0.464-0.502 1.04-0.884 1.69-1.11 0.582-0.184 1.2-0.215 1.8-0.091zm-0.141 1.08c-0.353 0.025-0.695 0.128-1 0.303-0.464 0.29-0.855 0.683-1.14 1.15-0.172 0.242-0.312 0.505-0.417 0.783-0.071 0.201-0.131 0.406-0.182 0.613-0.268 1.09 0.045 2.45 1.07 2.88 0.495 0.249 1.06 0.305 1.6 0.157 0.318-0.13 0.605-0.326 0.843-0.575 0.237-0.249 0.419-0.546 0.533-0.87 0.1-0.223 0.181-0.453 0.243-0.689 0.094-0.371 0.141-0.752 0.139-1.14 2e-3 -0.431-0.087-0.859-0.262-1.25-0.216-0.498-0.613-0.894-1.11-1.11l-0.266-0.26c-0.015 4e-3 -0.029 6e-3 -0.044 7e-3v-2e-3z"/><path d="m20.3 105c2.19 0.068 4.36 0.505 6.4 1.29 2.78 1 2.29 0.783 2.7 1.15l0.0477 0.392-0.0039 7e-3 -0.259 0.302-0.414 0.058c-2.59-0.726-5.25-1.2-7.94-1.41-0.74-0.096-1.49 7e-3 -2.18 0.298l-0.0188 7e-3c-0.503 0.306-0.923 0.731-1.22 1.24h-4e-3c-0.645 1.18-1.11 2.46-1.38 3.78-0.767 3.39-1.02 6.88-0.754 10.3 0.146 2.07 0.488 4.65 2.08 5.95 1.96 1.61 5.88 1.18 8.41 0.775 2.16-0.308 1.56-0.354 2.25-0.198l0.235 0.343-0.09 0.404-0.349 0.241c-1.84 0.461-3.71 0.804-5.6 1.03-2.48 0.258-5.43-0.228-6.91-2.21-2.61-3.13-2.06-12.4-1.16-16.4 0.544-2.44 1.3-5.33 3.38-6.7 0.367-0.242 0.771-0.421 1.2-0.533 0.512-0.123 1.04-0.176 1.57-0.158z"/><path d="m20.7 108c0.617 0.627 1.1 1.37 1.42 2.19 0.668 1.74 0.75 4.41 0.756 6.27-0.0329 2.38-0.335 4.75-0.9 7.07v7e-3c-0.252 0.968-0.173 0.635-0.258 0.957-0.46 1.36-0.906 2.74-2.13 3.6l-0.412 0.105-0.36-0.193-0.0987-0.387 0.19-0.385c0.705-0.632 1.08-2.2 1.24-3.13 0.7-3.84 1.24-6.58 0.84-10.7-0.144-1.38-0.41-2.65-0.432-2.74-0.121-0.705-0.357-1.38-0.7-2.01l-0.0823-0.418 0.173-0.339 0.376-0.092 0.378 0.189z"/><path d="m21.4 111c-2.01 3.05-2.3 6.16-2.47 9.41-0.0363 0.683-0.024 1.37 0.0368 2.05 0.0595 0.627 0.0744 2.6 0.682 3.06 0.0877 0.069 0.47-0.29 0.54-0.366 1.56-1.68 1.66-8.14 1.67-10.4-7e-3 -0.423 0.0188-3.17-0.907-2.79"/><path d="m21.7 110 0.0071 4e-3 0.209 0.33c-0.072 0.548-0.0188 0.331-0.18 0.663 0.7 0.545 0.825 2.47 0.849 3.36 0.17 2.72 0.0345 8.05-1.38 10.4-0.488 0.739-1.31 1.46-2.07 0.946-0.719-0.541-0.902-1.73-0.972-2.7-0.0969-0.941-0.139-1.89-0.125-2.83 0.176-4.04 0.457-6.8 2.91-10v-3e-3l0.36-0.219 0.384 0.064zm-1.77 8.17c-0.0946 0.979-0.134 1.96-0.118 2.95 0 0.132 0.119 1.95 0.164 2.18 0.916-2.39 1.27-9.41 1.14-10.8-0.633 1.84-1.03 3.76-1.19 5.71z"/><path d="m43.6 104c0.0415 9e-3 14.6 3.73 15 3.86 4.05 1.1 4.99 1.37 5.98 1.85 0.786 0.36 1.48 0.902 2.01 1.58 1.09 1.41 1.41 3.54 1.5 5.32 0.0484 0.992-0.0276 1.99-0.226 2.96-0.306 1.22-0.685 2.42-1.14 3.6l-0.273 0.313-0.403 0.044c-0.0055-6e-3 -0.307-0.262-0.313-0.266-0.087-0.756-0.128 0.156 0.682-3.13 0.127-0.569 0.206-1.15 0.235-1.73 0.0783-1.81-0.335-5.03-1.55-6.19-0.855-1.41-8.96-3.1-17.5-5.33-3.15-0.814-7.84-2.24-11.1-1.98-0.651 0.067-1.26 0.363-1.71 0.835-0.393 0.388-0.759 0.803-1.1 1.24-0.807 1.06-1.48 2.22-2.01 3.45-1.02 2.45-1.64 5.04-1.83 7.68-0.22 2.52-0.0286 5.05 0.568 7.5 0.236 1.04 0.7 2.02 1.36 2.87 2.2 2.66 7.9 1.94 11.3 1.61h0.0039l0.406 0.122 0.208 0.359v7e-3l-0.114 0.399-0.371 0.212c-0.36-0.016-4.93 0.933-8.52 0.358-4.81-0.77-5.86-4.35-6.55-9.06-0.554-5.11 0.464-10.3 2.92-14.8 0.83-1.51 1.96-2.83 3.31-3.9 0.424-0.252 0.886-0.437 1.37-0.548 2.2-0.456 4.88 0.133 7.83 0.77z"/><path d="m27.5 115v-0.014l0.0212 0.012 0.0251 8e-3v-0.014l0.0462 0.016v-0.018c0.0138 6e-3 0.0283 0.01 0.0431 0.013v-0.018l0.0321 8e-3 -0.0063-0.019 0.0353 0.01-0.0063-0.019h0.0321l-0.0062-0.018h0.0289l-0.0062-0.018 0.0102 4e-3h0.0148l-0.0101-0.019h0.0211l-0.0133-0.019h0.0133c-0.0041-6e-3 -0.0085-0.012-0.0133-0.018l-0.0071-7e-3h4e-3 -4e-3l0.0071 7e-3 -0.0071-7e-3 0.0071 7e-3v-4e-3l0.0063 8e-3h7e-3l0.0071 7e-3h7e-3v4e-3l0.0282 0.016h0.0071c0.208 0.07 0.42 0.126 0.635 0.168 0.181 0.079 0.206 0.13 0.345 0.199 0.382 0.304-0.0783-0.142 0.822 0.762-0.685 0.517-0.741 0.616-1.33 0.757-0.0996 0.016-0.201 0.012-0.299-0.012-0.651-0.075-1.25-0.389-1.68-0.882v-4e-3c-0.0672-0.136-0.0984-0.286-0.0906-0.437s0.0544-0.297 0.135-0.425l1.08-0.078 0.0595 0.044z"/><path d="m29.1 122c0.235 0.131 0.0055-0.07 0.709 0.645-0.304 0.337-0.673 0.609-1.09 0.8l-0.11 0.049h-0.0039c-0.0351 0.011-0.0694 0.024-0.103 0.04-0.287 0.032-0.564 0.122-0.816 0.264l-0.0117 0.01-0.011 7e-3h-0.0039l-0.018 0.01-0.011 0.01-0.0227 0.014-0.011 0.01-0.0109 7e-3 -0.0196 0.017-0.0298 0.027-0.0117 7e-3 -0.0259 0.025h-0.0219l-0.0149 6e-3h-0.018s-0.29 7e-3 -0.304 8e-3c-0.196-9e-3 0.0744 0.143-1.01-0.607v-7e-3c0.0282-0.647 0.115-0.683 0.463-0.947 0.27-0.195 0.569-0.345 0.886-0.445 0.255-0.117 0.534-0.173 0.814-0.165 0.28 9e-3 0.555 0.082 0.802 0.215z"/><path d="m37.7 107 0.0235 0.031h7e-3c0.804 0.87 1.42 1.9 1.8 3.02 0.215 0.747 0.174 0.487 0.17 0.57 0.0274 0.105 0.0979 0.42 0.116 0.504 0.435 2.19 0.579 4.42 0.428 6.64-0.128 2.44-0.65 4.85-1.55 7.13-0.705 1.7-1.59 4.05-3.43 4.23-0.47-0.02-0.28 0.063-0.791-0.235l-0.123-0.392v-7e-3l0.203-0.348 0.403-0.137h0.152l0.0329-0.01h0.011s0.0838-0.029 0.106-0.035l0.0079-7e-3c0.0062-2e-3 0.0122-4e-3 0.018-6e-3l0.011-7e-3h0.0109c0.0063 0 0.0282-0.015 0.0376-0.02l0.0071-7e-3c0.139-0.04 0.433-0.326 0.75-0.895v-8e-3c0.377-0.781 0.683-1.6 0.914-2.43 0.619-1.7 1.05-3.46 1.3-5.25 0.267-2.04 0.279-4.11 0.0368-6.15-0.108-0.893-0.27-1.78-0.483-2.65-0.208-1-0.556-1.97-1.03-2.88l-0.0784-0.418 0.185-0.339 0.379-0.084 0.378 0.182z"/><path d="m38.1 109c-2.26 1.12-3.16 3.66-3.7 5.95-0.374 1.58-0.731 5.68-0.421 7.11 0.284 1.47 1.38 4.42 2.62 3.38 2.43-2.01 2.51-9.23 2.4-12.4-0.0431-1.24-0.124-2.86-1.06-3.82"/><path d="m38.6 109v7e-3l0.0196 0.383c0.538 0.72 0.872 1.57 0.964 2.46 0.142 1.13 0.226 2.26 0.252 3.4 0.132 2.6-0.127 5.21-0.77 7.74-0.419 1.56-1.48 3.87-3.06 3.8-1.35-0.059-2.15-1.86-2.57-3.15-0.455-1.58-0.57-2.01-0.335-5.47 0.036-0.824 0.259-2.21 0.294-2.46 0.575-2.93 1.69-5.73 4.42-6.95 0.0838-0.032-0.0102-0.018 0.47-0.033l0.31 0.251zm-3.46 7.05c-0.198 1.24-0.319 2.49-0.362 3.74-0.03 0.737-0.0115 1.48 0.0557 2.21 0.182 1.08 0.604 2.1 1.23 2.98l0.011 7e-3c0.115-0.099 0.22-0.21 0.313-0.329 1.81-2.06 2.15-11.5 1.77-13.4-0.0473-0.252-0.12-0.498-0.217-0.735-0.0497-0.125-0.11-0.246-0.179-0.362-1.56 1.44-2.15 3.64-2.63 5.9z"/></g><path d="m37.7 113c0.0286 0.477-0.059 0.954-0.255 1.39-1.02 2.76-0.411 1.96-1.48 4.75l-0.269 0.371-0.349 0.125h-7e-3l-0.306-0.206c-0.136-0.264-0.204-0.559-0.197-0.857-0.0446-0.465-0.0446-0.934 0-1.4 0.212-1.17 0.534-2.32 0.961-3.43 0.127-0.392 0.363-0.741 0.679-1 0.322-0.296 0.109-0.188 0.988-0.47l0.236 0.728z" fill="#fff"/><path d="m21.2 117c-0.0163 0.585-0.153 1.16-0.402 1.69-0.168 0.384-7e-3 0.179-0.715 0.831-0.564-0.722-0.49-0.562-0.572-0.94-0.185-0.869-0.177-1.77 0.0243-2.63 0.101-0.961 0.0971-0.978 0.176-1.15 0.108-0.189 0.228-0.371 0.36-0.543l0.602-0.476c0.91 1.14 0.772 0.915 0.527 3.22z" fill="#fff"/><g fill="#212429"><path d="m68.5 117c0.584-0.036 1.16 0.142 1.62 0.5 1.27 0.926 1.49 2.9 1.28 4.42-0.363 2.52-2 3.74-3.83 3.66-0.321-0.025-0.635-0.102-0.931-0.228l-0.313-0.299c0-5e-3 -0.0486-0.391-0.0478-0.391l0.262-0.289c0.8-0.125 0.826-4e-3 1.26-0.168 0.249-0.083 0.48-0.213 0.681-0.382 0.425-0.35 0.755-0.801 0.96-1.31 0.35-0.846 0.407-2.91-0.246-3.47v-7e-3l-0.0102-8e-3 -0.0125-0.025c-0.0047 0-0.108-0.094-0.111-0.095-0.046-0.027-0.0905-0.057-0.133-0.089h-0.0071c-0.102-0.074-0.209-0.14-0.32-0.199-0.138-0.083-0.285-0.15-0.439-0.199-0.195-0.079-0.592-0.196-0.677-0.22l-0.373-0.23-0.144-0.331 0.173-0.318 0.392-0.199h0.0181c0.313-0.074 0.633-0.115 0.954-0.121z"/><path d="m99.1 151c0.119 0.679 0.279 0.415-2.24 2.57-1.15 0.996-6.79 5.29-10 7.33-0.0149 0.011-0.203 0.145-0.212 0.15l-0.41 0.13-0.356-0.12-0.132-0.349 0.122-0.413v-4e-3c0.0784-0.093-0.0141-0.015 0.648-0.856 0.743-0.858 1.61-1.6 2.58-2.19 4.15-2.95 4.58-3.75 9.2-6.37l0.44-0.079 0.352 0.2z"/><path d="m167 206c0.412 0.232 0.802 0.503 1.16 0.808 1.64 1.87 2.84 2.59 4.26 4.02 0.606 0.611 0.337 0.227 0.696 0.828l-0.034 0.377-0.323 0.203-0.454-0.038c-0.754-0.274-1.47-0.638-2.14-1.08-0.953-0.752-1.85-1.57-2.69-2.45-0.605-0.521-1.05-1.2-1.3-1.96l-7e-3 -0.011 0.066-0.763 0.755 0.069z"/></g></g></svg>
