<svg width="47" height="21" viewBox="0 0 47 21" fill="none" xmlns="http://www.w3.org/2000/svg">
<path d="M8.54743 3.09901C7.99608 3.78 7.11204 4.31729 6.228 4.24076C6.11867 3.3208 6.55132 2.34149 7.05737 1.73703C7.61029 1.03729 8.57555 0.537486 9.35806 0.5C9.45021 1.45901 9.09097 2.39771 8.54743 3.09901ZM9.25498 4.71558C7.9664 4.71558 7.04488 5.41844 6.44355 5.41844C5.83284 5.41844 4.92069 4.72339 3.8664 4.72339C2.57783 4.72339 1.31581 5.53246 0.65044 6.71169C-0.716227 9.06861 0.295888 12.5579 1.61726 14.4775C2.26545 15.4271 3.0464 16.4299 4.10069 16.4299C5.06751 16.3939 5.39395 15.8441 6.56069 15.8441C7.73524 15.8441 8.08355 16.4299 9.13783 16.4299C10.1921 16.4299 10.8309 15.463 11.4776 14.5134C12.2163 13.4357 12.5162 12.3845 12.535 12.3299C12.5178 12.3127 10.4936 11.5349 10.4748 9.19668C10.4576 7.24118 12.0695 6.30872 12.1429 6.25562C11.2323 4.90301 9.72355 4.71558 9.37212 4.71558H9.25498ZM22.2141 2.37272H16.8693V16.4299H19.095V11.7442H22.1407C24.9365 11.7442 26.9435 9.79958 26.9435 7.05844C26.9435 4.31729 24.9724 2.37272 22.2141 2.37272ZM21.6721 9.86986H19.095V4.24701H21.6721C23.5901 4.24701 24.7178 5.28255 24.7178 7.05844C24.7178 8.83432 23.5995 9.86986 21.6721 9.86986ZM32.051 6.12129C29.7191 6.12129 27.9947 7.43017 27.9307 9.22792H29.9096C30.072 8.37356 30.8811 7.81284 31.9885 7.81284C33.3317 7.81284 34.0908 8.42667 34.0908 9.55748L34.0924 10.3384L31.345 10.4837C28.7944 10.6352 27.4152 11.6582 27.4152 13.4388C27.4152 15.2366 28.8413 16.4299 30.8827 16.4299C32.2618 16.4299 33.5426 15.7442 34.1221 14.6587H34.1674V16.3237H36.1994V9.41691C36.1978 7.41143 34.5641 6.12129 32.051 6.12129ZM34.083 12.5579C34.083 13.8574 32.9569 14.7836 31.4699 14.7836C30.3001 14.7836 29.5551 14.2323 29.5551 13.3857C29.5551 12.5126 30.272 12.0066 31.6433 11.9253L34.0908 11.7442L34.083 12.5579ZM44.604 6.12129L41.9925 14.4462H41.9472L39.3357 6.12129H37.0178L40.7742 16.3814L40.5727 17.0062C40.2338 18.0636 39.684 18.4713 38.7047 18.4713C38.5376 18.4713 38.2189 18.4541 38.0737 18.4369V20.1285C38.2205 20.1613 38.7359 20.1784 38.8952 20.1784C41.0569 20.1784 42.0737 19.3647 42.964 16.8969L46.8578 6.12129H44.604Z" fill="black"/>
</svg>
