<svg version="1.1" viewBox="0 0 12 13" xmlns="http://www.w3.org/2000/svg"><path d="m6 0.4c-1.82-0.0316-3.53 1.37-3.85 3.16-0.138 0.85-0.039 1.72-0.22 2.57-0.187 0.973-0.499 2.01-1.25 2.7-0.454 0.267-0.285 1.04 0.24 1.09 3.36 0.0167 6.73 0.00239 10.1 0.00717 0.526 0.0287 0.813-0.709 0.405-1.04-0.755-0.608-1.07-1.6-1.28-2.51-0.203-0.863-0.156-1.75-0.234-2.63-0.234-1.77-1.81-3.24-3.6-3.34-0.0989-0.00736-0.198-0.011-0.297-0.0108zm-0.0117 1.2c1.39-0.0389 2.66 1.14 2.73 2.53 0.0129 1.55 0.173 3.17 0.979 4.52 0.102 0.149-0.38 0.037-0.534 0.0717h-6.94c0.512-0.714 0.722-1.61 0.884-2.46 0.159-0.793 0.113-1.61 0.192-2.4 0.199-1.28 1.4-2.28 2.69-2.26zm-0.979 9.3c-0.488 3.87e-4 -0.759 0.646-0.431 1.01 0.573 0.917 2.02 1.01 2.71 0.176 0.342-0.277 0.391-0.886-0.0374-1.1-0.37-0.22-0.748 0.0688-0.938 0.378-0.459 0.362-0.735-0.225-1.07-0.419-0.0751-0.0281-0.156-0.0409-0.236-0.0373z" fill="currentColor"/></svg>
