<svg width="26" height="23" viewBox="0 0 26 23" fill="none" xmlns="http://www.w3.org/2000/svg">
<path d="M22.885 1.45188C22.5975 0.60375 21.7925 0 20.8438 0H5.03125C4.0825 0 3.29187 0.60375 2.99 1.45188L0 10.0625V21.5625C0 22.3531 0.646875 23 1.4375 23H2.875C3.66563 23 4.3125 22.3531 4.3125 21.5625V20.125H21.5625V21.5625C21.5625 22.3531 22.2094 23 23 23H24.4375C25.2281 23 25.875 22.3531 25.875 21.5625V10.0625L22.885 1.45188ZM5.03125 15.8125C3.83812 15.8125 2.875 14.8494 2.875 13.6562C2.875 12.4631 3.83812 11.5 5.03125 11.5C6.22437 11.5 7.1875 12.4631 7.1875 13.6562C7.1875 14.8494 6.22437 15.8125 5.03125 15.8125ZM20.8438 15.8125C19.6506 15.8125 18.6875 14.8494 18.6875 13.6562C18.6875 12.4631 19.6506 11.5 20.8438 11.5C22.0369 11.5 23 12.4631 23 13.6562C23 14.8494 22.0369 15.8125 20.8438 15.8125ZM2.875 8.625L5.03125 2.15625H20.8438L23 8.625H2.875Z" fill="#DDE2E5"/>
</svg>
