<svg width="34" height="30" viewBox="0 0 34 30" fill="none" xmlns="http://www.w3.org/2000/svg">
<path d="M13.3333 21.6667V20H1.68333L1.66667 26.6667C1.66667 28.5167 3.15 30 5 30H28.3333C30.1833 30 31.6667 28.5167 31.6667 26.6667V20H20V21.6667H13.3333ZM30 6.66667H23.3167V3.33333L19.9833 0H13.3167L9.98333 3.33333V6.66667H3.33333C1.5 6.66667 0 8.16667 0 10V15C0 16.85 1.48333 18.3333 3.33333 18.3333H13.3333V15H20V18.3333H30C31.8333 18.3333 33.3333 16.8333 33.3333 15V10C33.3333 8.16667 31.8333 6.66667 30 6.66667ZM20 6.66667H13.3333V3.33333H20V6.66667Z" fill="#FD710F"/>
</svg>
