<svg viewBox="0 0 30 25" xmlns="http://www.w3.org/2000/svg"><path d="m12.2 0c-1.21 0-2.19 0.981-2.19 2.19v1.56h-6.56c-1.9 0-3.44 1.54-3.44 3.44v5 9.38c0 1.9 1.54 3.44 3.44 3.44h23.1c1.9 0 3.44-1.54 3.44-3.44v-9.38-5c0-1.9-1.54-3.44-3.44-3.44h-6.56v-1.56c0-1.21-0.981-2.19-2.19-2.19h-5.62zm0 1.88h5.62c0.172 0 0.312 0.14 0.312 0.312v1.56h-6.25v-1.56c0-0.172 0.14-0.312 0.312-0.312zm-8.75 3.75h7.5 8.12 7.5c0.861 0 1.56 0.701 1.56 1.56v4.06h-9.38v-0.312c0-1.21-0.981-2.19-2.19-2.19h-3.12c-1.21 0-2.19 0.981-2.19 2.19v0.312h-9.38v-4.06c0-0.861 0.701-1.56 1.56-1.56zm10 5h3.12c0.172 0 0.312 0.14 0.312 0.312v3.12c0 0.172-0.14 0.312-0.312 0.312h-3.12c-0.172 0-0.312-0.14-0.312-0.312v-3.12c0-0.172 0.14-0.312 0.312-0.312zm-11.6 2.5h9.38v0.938c0 1.21 0.981 2.19 2.19 2.19h3.12c1.21 0 2.19-0.981 2.19-2.19v-0.938h9.38v8.44c0 0.861-0.701 1.56-1.56 1.56h-23.1c-0.861 0-1.56-0.701-1.56-1.56v-8.44z" fill="currentColor"/></svg>
