<svg viewBox="0 0 12 12" xmlns="http://www.w3.org/2000/svg"><path d="m5.71 0.402c-1.96 0.0997-3.84 1.29-4.71 3.07-1.08 2.08-0.655 4.8 1.01 6.45 1.59 1.67 4.25 2.16 6.33 1.18 2.02-0.892 3.35-3.05 3.28-5.25 0.0281-0.328-0.0199-0.736-0.383-0.859-0.431-0.187-0.902 0.241-0.818 0.686 0.0929 1.49-0.585 3.02-1.82 3.88-1.5 1.12-3.7 1.11-5.19-0.0176-1.55-1.1-2.2-3.26-1.53-5.03 0.611-1.8 2.5-3.03 4.39-2.89 0.595 0.0143 1.16 0.227 1.71 0.42 0.521 0.0907 0.892-0.61 0.525-0.99-0.478-0.381-1.13-0.472-1.72-0.588-0.0487 0.0522-0.177-0.0869-0.223-0.0234-0.281-0.0319-0.563-0.0396-0.844-0.0254zm5.29 0.998c-0.418 0.0344-0.631 0.453-0.928 0.697l-4.06 4.06c-0.41-0.393-0.789-0.824-1.22-1.19-0.442-0.287-1.06 0.211-0.869 0.703 0.175 0.358 0.53 0.588 0.789 0.885 0.342 0.322 0.647 0.69 1.02 0.979 0.34 0.197 0.691-0.0448 0.904-0.309 1.61-1.61 3.23-3.22 4.84-4.84 0.341-0.378 0.0201-1.02-0.469-0.986z" fill="currentColor"/></svg>
