<svg viewBox="0 0 14 13" xmlns="http://www.w3.org/2000/svg"><path d="m12.6 1.01a0.6 0.6 0 0 0-0.412 0.182l-5.69 5.69-1.41-1.41a0.6 0.6 0 1 0-0.848 0.848l1.83 1.83a0.6 0.6 0 0 0 0.848 0l6.11-6.11a0.6 0.6 0 0 0-0.436-1.03z" fill="currentColor" /><path d="m2.22 0.4c-0.483 0-0.947 0.192-1.29 0.533-0.342 0.342-0.533 0.806-0.533 1.29v8.55c0 0.483 0.192 0.947 0.533 1.29 0.342 0.342 0.806 0.533 1.29 0.533h8.55c0.483 0 0.948-0.192 1.29-0.533 0.342-0.342 0.533-0.806 0.533-1.29v-4.28a0.6 0.6 0 1 0-1.2 0v4.28c0 0.165-0.0668 0.323-0.184 0.439-0.117 0.117-0.274 0.184-0.439 0.184h-8.55c-0.165 0-0.323-0.0667-0.439-0.184-0.117-0.117-0.184-0.274-0.184-0.439v-8.55c0-0.165 0.0667-0.323 0.184-0.439 0.117-0.117 0.274-0.184 0.439-0.184h6.72a0.6 0.6 0 1 0 0-1.2z" fill="currentColor"/></svg>
