<svg fill="none" viewBox="0 0 1700 1619" xmlns="http://www.w3.org/2000/svg"><path d="m250 9e-3c-66.2 0-130 26.3-177 73.1-46.8 46.8-73.1 111-73.1 177v1119c0 66.2 26.3 130 73.1 177 46.8 46.8 111 73.1 177 73.1h1119c66.2 0 130-26.3 177-73.1 46.8-46.8 73.1-111 73.1-177v-560a90 90 0 1 0-180 0v560c0 18.5-7.36 36.3-20.4 49.4-13.2 13.2-31.1 20.6-49.7 20.6h-1119c-18.5 0-36.3-7.33-49.4-20.4-13.2-13.2-20.6-31.1-20.6-49.7v-1119c0-18.6 7.23-36.5 20.4-49.7 13.1-13.1 31.1-20.4 49.7-20.4h879a90 90 0 1 0 0-180zm1357 79.2a90 90 0 0 0-61.8 27.2l-736 736-176-176a90 90 0 1 0-127 127l240 240a90 90 0 0 0 127 0l800-800a90 90 0 0 0-65.4-154z" fill="#acb5bd"/></svg>
