<svg viewBox="0 0 1700 1701" xmlns="http://www.w3.org/2000/svg"><path d="m850 0c-113-3.08-213 103-203 216-18.3 102-120 40.2-168-1.36-116-60.8-273 23.4-288 154-13.3 72.3 22.6 141 71.6 191 35.2 100-87.4 89-146 113-122 51.2-156 226-64.3 320 44.1 53.3 114 68.1 180 69.5 95.6 43.9-4.81 121-25.9 178-49 122 50.1 270 181 271 67 6.49 125-31 172-73.6 100-34.9 88.6 87.6 113 146 49.7 117 216 155 312 70.9 58.3-43.5 76.3-118 77.2-187 43.9-95.6 121 4.81 178 25.9 122 49 270-50.1 271-181 6.43-66.9-31.1-125-73.6-172-34.9-99.3 90.6-80.5 146-107 122-51.2 156-226 64.3-321-44.3-53-114-67.9-180-69.3-88.5-41.7-7.45-122 22.3-175 54.9-119-36.8-272-168-280-69.5-9.5-133 26.9-182 72.8-99.5 34.9-80.6-90.9-107-146-31.3-70.7-109-117-183-117zm0.0781 117c100 1.91 73 117 107 179 53.4 103 209 123 286 35.5 77-83.4 204 54.2 115 124-93.3 89.1-50.4 269 76.1 301 77-3.51 190 44.1 134 139-50.7 63.1-154 19.6-204 91.8-68.4 67.6-66.8 190 5.1 255 83.4 77-53.2 204-124 115-88-94.5-264-49.2-297 75.6 3.44 76.8-44 190-139 133-63-52-20.6-158-96.9-207-70.3-63.7-191-65.4-255 7.34-77 83.4-204-53.1-115-124 94.5-88 49.2-264-75.6-297-76.8 3.44-190-44-133-139 52-63 158-20.6 207-96.9 63.7-70.3 65.4-191-7.33-255-83.4-77 53.1-204 124-115 88.9 93.9 269 51.1 302-75.6 9.92-59.8 5.57-149 92-148zm-0.0781 457c-168-5.47-309 167-269 330 27.8 159 213 264 364 203 153-51.2 230-249 147-389-46.8-87.2-142-145-242-144zm0 119c115-5.69 197 134 138 232-51.8 108-224 108-276 0.354-58.2-99.8 21.8-237 138-232z" fill="currentColor"/></svg>
