<svg fill="none" viewBox="0 0 18 18" xmlns="http://www.w3.org/2000/svg"><path d="m8.36 0.314c-3.96 0.433-7.27 4.12-7.19 8.12-0.011 1.19 0.233 2.39 0.732 3.48-0.54 1.71-1.19 3.38-1.66 5.11 0.0247 0.755 0.995 0.871 1.51 0.514 1.45-0.484 2.91-0.967 4.36-1.45 3.3 1.58 7.6 0.575 9.83-2.33 2.35-2.89 2.46-7.42 0.0726-10.3-1.77-2.28-4.78-3.56-7.65-3.11zm0.201 1.51c3.23-0.547 6.62 1.69 7.45 4.86 0.842 2.91-0.502 6.29-3.16 7.77-1.96 1.14-4.5 1.22-6.51 0.167-0.705-0.127-1.34 0.33-2.01 0.484-0.714 0.238-1.43 0.476-2.14 0.714 0.411-1.27 0.86-2.52 1.25-3.79-0.178-0.942-0.772-1.77-0.76-2.76-0.343-3.14 1.74-6.43 4.84-7.22 0.343-0.0997 0.693-0.174 1.05-0.222z" fill="currentColor"/></svg>
