<svg width="29" height="20" viewBox="0 0 29 20" fill="none" xmlns="http://www.w3.org/2000/svg">
<path d="M28.1143 4.64328V3.16069C28.1143 1.46241 26.7376 0.0856934 25.0393 0.0856934H3.075C1.37672 0.0856934 0 1.46241 0 3.16069V4.64328C0 4.79489 0.122945 4.91784 0.274554 4.91784H27.8397C27.9913 4.91784 28.1143 4.79489 28.1143 4.64328Z" fill="#ACB5BD"/>
<path d="M0 6.94953V16.3393C0 18.0375 1.37672 19.4143 3.075 19.4143H25.0393C26.7376 19.4143 28.1143 18.0375 28.1143 16.3393V6.94953C28.1143 6.79793 27.9913 6.67498 27.8397 6.67498H0.274554C0.122945 6.67498 0 6.79793 0 6.94953ZM7.02857 14.1428C7.02857 14.628 6.63519 15.0214 6.15 15.0214H5.27143C4.78624 15.0214 4.39286 14.628 4.39286 14.1428V13.2643C4.39286 12.7791 4.78624 12.3857 5.27143 12.3857H6.15C6.63519 12.3857 7.02857 12.7791 7.02857 13.2643V14.1428Z" fill="#ACB5BD"/>
</svg>
