<svg fill="none" viewBox="0 0 14.5 14.5" xmlns="http://www.w3.org/2000/svg"><path d="m3.01 0.0123c-1.09-0.0413-2.06 0.9-2.11 1.98-0.295 1.94-0.623 3.88-0.896 5.83-0.0864 1.21 1.06 2.26 2.26 2.14h2.82c0.0276 0.837-0.07 1.69 0.0833 2.51 0.296 1.24 1.6 2.19 2.87 2 0.524-0.182 0.586-0.804 0.832-1.23 0.691-1.53 1.38-3.06 2.07-4.59 0.762-0.0393 1.55 0.11 2.29-0.154 0.887-0.335 1.38-1.31 1.28-2.22-0.0066-1.47 0.0133-2.95-0.0103-4.42-0.0848-1.13-1.2-1.97-2.31-1.85h-9.18zm-0.0176 1.5h6.71v6.24c-0.767 1.7-1.53 3.4-2.3 5.1-0.666-0.0658-0.884-0.79-0.822-1.36-0.0096-0.807 0.0195-1.62-0.015-2.42-0.0827-0.501-0.624-0.66-1.06-0.601-1.18-0.0077-2.36 0.0153-3.54-0.0114-0.55-0.103-0.461-0.7-0.371-1.1 0.289-1.82 0.557-3.64 0.86-5.46 0.0755-0.227 0.31-0.38 0.547-0.375zm8.21 0c0.484 0.0222 0.98-0.0487 1.45 0.0438 0.512 0.23 0.305 0.846 0.348 1.29-0.0068 1.29 0.0137 2.58-0.0104 3.88-0.132 0.57-0.781 0.429-1.22 0.445-0.184-0.0626-0.646 0.153-0.576-0.164v-5.49z" fill="#b1b9c1"/></svg>
