<svg version="1.1" viewBox="0 0 1700 2966" xmlns="http://www.w3.org/2000/svg"><path d="m848 0.0136c-69.5-0.972-100 73.6-89.3 133v374c-177 2.71-369-22.3-522 89.7-249 157-315 529-133 761 113 160 313 231 505 217h150v704c-229 1.03-457-2.07-686 1.55-88 11.3-99.7 148-14.9 174 110 12.8 223 2.2 334 5.68h368c2.37 148-4.79 295 3.68 442 20.1 86.4 157 84.4 175-2.64 6.8-146 1.03-293 2.94-439 177-2.69 369 22.3 522-89.7 249-157 315-529 133-761-113-160-313-231-505-217h-150v-704c186-1.04 374 2.08 560-1.55 88-11.3 99.7-148 14.9-174-110-12.8-223-2.2-334-5.68h-241c-2.38-148 4.83-295-3.7-442-10.7-38.4-48.7-66.3-88.5-65.1zm-315 689h226v704c-146-6.85-310 28.9-436-69-177-122-190-405-26.9-545 63.9-58.2 150-91.3 236-91zm408 886c146 6.84 310-28.9 434 69 177 122 190 405 26.9 545-99.1 99.5-243 93.3-373 91-38-5.18-108 21.2-88.7-41v-663z" fill="currentColor"/></svg>
