<svg viewBox="0 0 1700 1386" xmlns="http://www.w3.org/2000/svg"><path d="m221 1.12c-127-3.55-231 119-220 242 0.757 314-1.52 629 1.14 943 9.48 120 127 211 245 198 414-0.193 828 0.386 1243-0.285 124-3.26 223-124 209-246-0.218-308 0.444-616-0.327-923-2.04-123-119-227-242-214h-1236zm0 126h1258c55.2-5.34 123 70.3 49.1 93.1-226 158-452 316-678 475-239-167-478-335-717-502 11.7-37.8 48.6-66.2 88.6-65.5zm-94.3 215c233 162 464 327 698 487 51.4 20.7 88.9-31.5 129-53.9 206-144 413-289 619-433-0.327 277 0.646 555-0.486 832-4.18 61.7-68.8 93.4-125 84.7-412-0.327-824 0.646-1237-0.486-61.7-4.18-93.4-68.8-84.7-125v-792z" fill="currentColor"/></svg>
