<svg fill="none" viewBox="0 0 23 17" xmlns="http://www.w3.org/2000/svg"><path d="m11.5 0c-7.38 0-11.4 8.28-11.4 8.28a0.5 0.5 0 0 0 0 0.445s4.07 8.28 11.4 8.28c7.38 0 11.4-8.28 11.4-8.28a0.5 0.5 0 0 0 0-0.445s-4.07-8.28-11.4-8.28zm0 1c6.31 0 10.1 6.85 10.4 7.5-0.344 0.649-4.11 7.5-10.4 7.5-6.31 0-10.1-6.85-10.4-7.5 0.344-0.649 4.11-7.5 10.4-7.5zm0 4c-1.93 0-3.5 1.57-3.5 3.5 0 1.93 1.57 3.5 3.5 3.5 1.93 0 3.5-1.57 3.5-3.5 0-1.93-1.57-3.5-3.5-3.5zm0 1c1.39 0 2.5 1.11 2.5 2.5 0 1.39-1.11 2.5-2.5 2.5s-2.5-1.11-2.5-2.5c0-1.39 1.11-2.5 2.5-2.5z" /></svg>
