<svg fill="none" version="1.1" viewBox="0 0 436 173" xmlns="http://www.w3.org/2000/svg">
<path d="m72 0a72 72 0 0 0-64.3 39.7 72 72 0 0 0 0 64.7 72 72 0 0 0 64.3 39.7c19.4 0 35.8-6.38 47.7-17.4l-0.0117-0.00976h0.0117c13.6-12.5 21.4-31.1 21.4-53a85.8 85.8 0 0 0-1.24-14.6h-67.9v27.7h38.9a33.3 33.3 0 0 1-14.4 21.9v0.00976c-6.46 4.38-14.8 6.88-24.5 6.88-18.8 0-34.7-12.7-40.4-29.7a43.1 43.1 0 0 1 0-27.6c5.7-17.1 21.6-29.7 40.4-29.7a39.1 39.1 0 0 1 27.6 10.8l20.6-20.6a69.2 69.2 0 0 0-48.2-18.8zm118 10v125h16.1v-50.8-0.00977h26.6c11 0.00667 20.2-3.55 27.6-10.7a34.7 34.7 0 0 0 11.6-26.6 34.9 34.9 0 0 0-11.6-26.5 38.6 38.6 0 0 0-27.6-10.8h-42.7zm44.1 15.4a21 21 0 0 1 14.9 6.65 21.4 21.4 0 0 1 0 30.6 21.3 21.3 0 0 1-15.9 6.48h-27v-43.8-0.00977h27a21 21 0 0 1 0.99-0.00391zm74.9 21.4c-15.3 0-26.8 5.6-34.6 16.8l14.2 8.93c5.24-7.59 12.4-11.4 21.3-11.4a22.8 22.8 0 0 1 15.5 5.87 18.3 18.3 0 0 1 6.65 14.2v3.68c-6.19-3.5-14.1-5.25-23.6-5.25-11.2 0.0133-20.2 2.64-26.9 7.88-6.71 5.24-10.1 12.3-10.1 21.2a26.8 26.8 0 0 0 9.54 21c6.36 5.6 14.3 8.4 23.7 8.4 11.1 0 19.9-4.9 26.6-14.7h0.699v11.9h15.4v-52.8c0.00667-11.1-3.43-19.8-10.3-26.2-6.89-6.36-16.3-9.54-28.2-9.54zm41.1 2.8 35.3 80.3-20 43.2h16.6l53.8-124h-17.5l-24.9 61.6h-0.35l-25.5-61.6h-17.5zm-39 43c8.98 0 16 2 21 6 0 6.76-2.67 12.6-8 17.7a25.7 25.7 0 0 1-18.1 7.52 19.6 19.6 0 0 1-12.5-4.2 12.9 12.9 0 0 1-5.34-10.5c0-4.67 2.19-8.56 6.6-11.8 4.37-3.15 9.82-4.73 16.4-4.73z" fill="000"/>
</svg>
