<svg fill="none" viewBox="0 0 17.5 17.5" xmlns="http://www.w3.org/2000/svg"><path d="m8.75 0c-4.82 0-8.75 3.93-8.75 8.75 0 4.82 3.93 8.75 8.75 8.75 4.82 0 8.75-3.93 8.75-8.75 0-4.82-3.93-8.75-8.75-8.75zm0 1.5c4.01 0 7.25 3.24 7.25 7.25 0 4.01-3.24 7.25-7.25 7.25-4.01 0-7.25-3.24-7.25-7.25 0-4.01 3.24-7.25 7.25-7.25z" fill="#fd710f"/><path d="m8.74 7.99a0.75 0.75 0 0 0-0.738 0.76v3.2a0.75 0.75 0 1 0 1.5 0v-3.2a0.75 0.75 0 0 0-0.762-0.76z" fill="#fd710f"/><path d="m8.75 4.8a0.75 0.75 0 1 0 0 1.5h0.00781a0.75 0.75 0 1 0 0-1.5z" fill="#fd710f"/></svg>
