<svg fill="none" viewBox="0 0 14.5 14.5" xmlns="http://www.w3.org/2000/svg"><path d="m6.71 2.64e-4c-0.589-0.0149-0.751 0.611-0.952 1.04-0.724 1.6-1.45 3.21-2.17 4.81-0.762 0.0393-1.55-0.11-2.29 0.154-0.887 0.335-1.38 1.31-1.28 2.22 0.00656 1.47-0.0133 2.95 0.0103 4.42 0.0848 1.13 1.2 1.97 2.31 1.85 3.12-4e-3 6.24 0.0081 9.36-0.0061 1.05-0.0544 1.89-0.988 1.93-2.02 0.292-1.93 0.618-3.86 0.89-5.79 0.0863-1.21-1.06-2.26-2.26-2.14h-2.82c-0.0276-0.837 0.07-1.69-0.0833-2.51-0.286-1.18-1.43-2.06-2.65-2.04zm0.41 1.67c0.646 0.0578 0.884 0.761 0.822 1.32 0.00961 0.821-0.0195 1.64 0.015 2.46 0.0827 0.501 0.624 0.66 1.06 0.601 1.18 0.00769 2.36-0.0153 3.54 0.0114 0.55 0.103 0.461 0.7 0.371 1.1-0.289 1.82-0.557 3.64-0.86 5.46-0.214 0.534-0.849 0.337-1.3 0.375h-5.96v-6.24c0.767-1.7 1.53-3.4 2.3-5.1zm-5.03 5.68h1.23v5.65c-0.484-0.0222-0.98 0.0487-1.45-0.0438-0.512-0.23-0.305-0.846-0.348-1.29 0.00682-1.29-0.0137-2.58 0.0104-3.88 0.0478-0.259 0.3-0.449 0.56-0.445z" fill="#b1b9c1"/></svg>
