<svg width="20" height="20" viewBox="0 0 20 20" fill="none" xmlns="http://www.w3.org/2000/svg">
<path fill-rule="evenodd" clip-rule="evenodd" d="M5.24473 6.81671H1.15332V19.1097H5.24473V6.81671Z" fill="white"/>
<path fill-rule="evenodd" clip-rule="evenodd" d="M5.51419 3.01374C5.48764 1.80842 4.62571 0.890381 3.22606 0.890381C1.82642 0.890381 0.911377 1.80842 0.911377 3.01374C0.911377 4.1941 1.79937 5.13858 3.17295 5.13858H3.1991C4.62571 5.13858 5.51419 4.1941 5.51419 3.01374Z" fill="white"/>
<path fill-rule="evenodd" clip-rule="evenodd" d="M19.9998 12.0612C19.9998 8.28531 17.9814 6.52795 15.289 6.52795C13.1168 6.52795 12.1442 7.72112 11.6012 8.55814V6.81694H7.50928C7.5632 7.97045 7.50928 19.1099 7.50928 19.1099H11.6012V12.2445C11.6012 11.8771 11.6277 11.5106 11.7359 11.2476C12.0316 10.5136 12.7049 9.75367 13.8352 9.75367C15.3163 9.75367 15.9084 10.8809 15.9084 12.5329V19.1096H19.9996L19.9998 12.0612Z" fill="white"/>
</svg>
