<svg viewBox="0 0 1700 1458" xmlns="http://www.w3.org/2000/svg"><path d="m136 0.0134a134 134 0 1 0 0 268h0.697a134 134 0 1 0 0-268zm425 0a134 134 0 1 0 0 268h1e3a134 134 0 1 0 0-268zm-425 595a134 134 0 1 0 0 268h0.697a134 134 0 1 0 0-268zm425 0a134 134 0 1 0 0 268h1e3a134 134 0 1 0 0-268zm-425 595a134 134 0 1 0 0 268h0.697a134 134 0 1 0 0-268zm425 0a134 134 0 1 0 0 268h1e3a134 134 0 1 0 0-268z" fill="currentColor"/><path d="m136 0.0134a134 134 0 1 0 0 268h0.697a134 134 0 1 0 0-268zm425 0a134 134 0 1 0 0 268h1e3a134 134 0 1 0 0-268zm-425 595a134 134 0 1 0 0 268h0.697a134 134 0 1 0 0-268zm425 0a134 134 0 1 0 0 268h1e3a134 134 0 1 0 0-268zm-425 595a134 134 0 1 0 0 268h0.697a134 134 0 1 0 0-268zm425 0a134 134 0 1 0 0 268h1e3a134 134 0 1 0 0-268z" fill="currentColor"/></svg>
