<svg width="14" height="14" viewBox="0 0 14 14" fill="none" xmlns="http://www.w3.org/2000/svg">
<path d="M10.2126 0.564271C10.3914 0.385452 10.6037 0.243606 10.8374 0.14683C11.071 0.0500539 11.3214 0.000244143 11.5743 0.000244141C11.8272 0.000244139 12.0776 0.0500539 12.3112 0.14683C12.5449 0.243606 12.7572 0.385452 12.936 0.564271C13.1148 0.74309 13.2566 0.955378 13.3534 1.18902C13.4502 1.42265 13.5 1.67306 13.5 1.92595C13.5 2.17884 13.4502 2.42925 13.3534 2.66289C13.2566 2.89653 13.1148 3.10882 12.936 3.28763L3.74462 12.479L0 13.5002L1.02126 9.75562L10.2126 0.564271Z" fill="#FD710F"/>
</svg>
