<svg viewBox="0 0 1700 1895" xmlns="http://www.w3.org/2000/svg"><path d="m850 0c-254 0-461 207-461 461s207 461 461 461c254 0 461-207 461-461s-207-461-461-461zm0 146c175 0 316 140 316 316s-140 316-316 316c-175 0-316-140-316-316s140-316 316-316zm-389 1020c-122 0-240 48.6-326 135-86.5 86.5-135 204-135 326v194a72.9 72.9 0 1 0 146 0v-194c0-83.8 33.2-164 92.4-223 59.2-59.2 140-92.4 223-92.4h777c83.8 0 164 33.2 223 92.4 59.2 59.2 92.4 140 92.4 223v194a72.9 72.9 0 1 0 146 0v-194c0-122-48.6-240-135-326-86.5-86.5-204-135-326-135z" fill="currentColor"/></svg>
