<svg width="25" height="25" viewBox="0 0 25 25" fill="none" xmlns="http://www.w3.org/2000/svg">
<path d="M23.625 17.1944C21.9167 17.1944 20.2639 16.9167 18.7222 16.4167C18.2361 16.25 17.6944 16.375 17.3194 16.75L15.1389 19.4861C11.2083 17.6111 7.52778 14.0694 5.56944 10L8.27778 7.69444C8.65278 7.30556 8.76389 6.76389 8.61111 6.27778C8.09722 4.73611 7.83333 3.08333 7.83333 1.375C7.83333 0.625 7.20833 0 6.45833 0H1.65278C0.902778 0 0 0.333333 0 1.375C0 14.2778 10.7361 25 23.625 25C24.6111 25 25 24.125 25 23.3611V18.5694C25 17.8194 24.375 17.1944 23.625 17.1944Z" fill="#FD710F"/>
</svg>
