<svg viewBox="0 0 1700 2037" xmlns="http://www.w3.org/2000/svg"><path d="m850 0c-225 0-442 89.6-601 249-159 159-249 376-249 601 0 334 207 623 404 832 197 208 395 339 395 339a92.6 92.6 0 0 0 103 0s197-131 395-339 404-497 404-832c0-225-89.6-442-249-601-159-159-376-249-601-249zm0 185c176 0 345 70 470 195 125 125 195 294 195 470 0 255-172 513-353 704-123 130-245 227-312 276-66.3-49.2-188-146-312-276-182-192-353-449-353-704 0-176 70-345 195-470 125-125 294-195 470-195zm-0.0117 320c-189 0-345 156-345 345 0 189 156 345 345 345 189 0 345-156 345-345 0-189-156-345-345-345zm0 185c89.4 0 160 70.5 160 160 0 89.4-70.5 160-160 160-89.4 0-160-70.5-160-160 0-89.4 70.5-160 160-160z" fill="currentColor"/></svg>
