<svg viewBox="0 0 1700 1700" xmlns="http://www.w3.org/2000/svg"><path d="m850 0.0713c-338-4.62-663 215-787 529-127 302-57 673 172 907 223 240 590 328 897 216 322-110 559-428 567-769 17.2-331-182-658-481-799-114-55.3-241-84.1-368-83.9zm0 146c313-5.9 609 224 682 528 79.8 292-54.7 626-317 779-267 168-644 123-864-104-227-220-272-596-104-864 124-208 360-341 602-339zm-7.97 242c-134-0.838-269 98.7-292 233-2.08 67.5 96.5 97.4 132 40.2 24.1-73.6 92.4-136 174-127 108 1.71 199 152 111 235-46.1 51.6-114 71.1-172 104-53.2 41.7-12.9 137 54 127 123-36.5 252-116 292-245 46.9-183-113-373-300-367zm7.97 777c-67.4-4.78-101 92.5-45.4 131 52.6 45 142-14 117-80.3-9.39-30.2-39.7-51.5-71.2-50.3z" fill="currentColor"/></svg>
