<svg viewBox="0 0 1700 1889" xmlns="http://www.w3.org/2000/svg"><path d="m848 0.0473c-69.3-1.32-110 70.5-99.7 133 0.337 243-0.674 486 0.506 729 4.01 88.8 133 124 182 50.5 35.3-55.8 14.5-125 20.1-188-1.12-214 2.25-428-1.7-642-8.03-47.4-52.9-84.1-101-82.6zm532 375c-87.3-5.98-138 115-72.7 173 216 216 252 582 85 837-145 237-452 360-718 277-281-77.6-480-360-472-650 0.196-179 78.3-353 203-480 52.2-71.9-26.1-180-111-153-80.7 34.2-123 122-172 191-192 315-155 748 89.5 1025 220 263 609 367 930 241 336-121 568-470 558-826-2.58-229-95.9-459-263-617-16.5-11.7-36.6-18.2-56.8-18.4z" fill="currentColor"/></svg>
