<svg fill="none" viewBox="0 0 22 22" xmlns="http://www.w3.org/2000/svg"><path d="m11 0.5c-5.79 0-10.5 4.71-10.5 10.5 0 5.79 4.71 10.5 10.5 10.5 5.79 0 10.5-4.71 10.5-10.5 0-5.79-4.71-10.5-10.5-10.5zm0 1c5.25 0 9.5 4.25 9.5 9.5 0 5.25-4.25 9.5-9.5 9.5-5.25 0-9.5-4.25-9.5-9.5 0-5.25 4.25-9.5 9.5-9.5zm-3 6a0.5 0.5 0 1 0 0 1h0.00977a0.5 0.5 0 1 0 0-1h-0.00977zm6 0a0.5 0.5 0 1 0 0 1h0.00977a0.5 0.5 0 1 0 0-1h-0.00977zm-7.04 4.99a0.5 0.5 0 0 0-0.365 0.807s1.63 2.2 4.4 2.2c2.77 0 4.4-2.2 4.4-2.2a0.501 0.501 0 0 0-0.801-0.602s-1.37 1.8-3.6 1.8c-2.23 0-3.6-1.8-3.6-1.8a0.5 0.5 0 0 0-0.385-0.205 0.5 0.5 0 0 0-0.0508 0z" fill="#acb5bd" /></svg>
