<svg width="121" height="19" viewBox="0 0 121 19" fill="none" xmlns="http://www.w3.org/2000/svg">
<path d="M9.98948 0L13.0762 6.25342L19.979 7.26236L14.9842 12.1272L16.163 19L9.98948 15.7534L3.81598 19L4.99474 12.1272L0 7.26236L6.90273 6.25342L9.98948 0Z" fill="#FFCC4D"/>
<path d="M60.0798 0L63.1666 6.25342L70.0693 7.26236L65.0746 12.1272L66.2533 19L60.0798 15.7534L53.9063 19L55.0851 12.1272L50.0903 7.26236L56.9931 6.25342L60.0798 0Z" fill="#FFCC4D"/>
<path d="M35.0356 0L38.1224 6.25342L45.0251 7.26236L40.0304 12.1272L41.2091 19L35.0356 15.7534L28.8621 19L30.0409 12.1272L25.0461 7.26236L31.9489 6.25342L35.0356 0Z" fill="#FFCC4D"/>
<path d="M85.1257 0L88.2125 6.25342L95.1152 7.26236L90.1205 12.1272L91.2992 19L85.1257 15.7534L78.9522 19L80.131 12.1272L75.1362 7.26236L82.039 6.25342L85.1257 0Z" fill="#FFCC4D"/>
<path d="M110.172 0L113.259 6.25342L120.161 7.26236L115.167 12.1272L116.345 19L110.172 15.7534L103.998 19L105.177 12.1272L100.182 7.26236L107.085 6.25342L110.172 0Z" fill="#FFCC4D"/>
</svg>
