<svg viewBox="0 0 1700 1700" xmlns="http://www.w3.org/2000/svg"><path d="m853 0.0474c-67.4-4.36-89.4 66-112 115-61.8 132-124 263-185 395-166 26.6-333 48.7-498 78.2-66.9 21.7-74.8 118-18.8 156 112 115 225 230 337 346-27.4 175-59.5 350-83.9 526 0.0722 72.1 92.7 108 146 63.6 138-76.1 275-152 413-228 149 80.9 295 166 445 244 67.9 24.1 133-51 109-116l-79.8-490c120-125 244-246 362-373 40.4-57.6-11.1-139-78.9-136-154-23.6-308-47.2-462-70.9-75.5-158-147-319-225-475-15.5-21.1-40.9-34.3-67.1-35zm-2.84 292c55.8 116 108 234 166 349 40.2 48.7 110 36.6 166 51 83.3 12.8 167 25.7 250 38.5-90.8 94.7-185 186-274 283-30 53.4 1.52 114 5.06 170 14.4 88.5 28.8 177 43.2 265-110-59.7-219-123-330-181-61-16.8-109 35.6-161 58.1-73.9 40.8-148 81.7-222 123 20.2-131 44.8-261 62.1-392-5.91-61-66.6-92.5-102-137-61.9-63.4-124-127-186-190 125-20.4 251-36.4 376-59.7 58-24.9 66.2-95.5 95.7-145 36.6-78 73.3-156 110-234z" fill="currentColor"/></svg>
