<svg viewBox="0 0 1700 1545" xmlns="http://www.w3.org/2000/svg"><path d="m694 0c-60 0-118 23.8-160 66.2-42.4 42.4-66.2 100-66.2 160v85.9h-242c-124 0-226 102-226 226v780c0 124 102 226 226 226h300a70.2 70.2 0 0 0 23 0h601a70.2 70.2 0 0 0 23 0h300c124 0 226-102 226-226v-780c0-124-102-226-226-226h-242v-85.9c0-60-23.8-118-66.2-160-42.4-42.4-100-66.2-160-66.2zm0 140h312c22.8 0 44.6 8.94 60.7 25 16.1 16.1 25 37.9 25 60.7v85.9h-483v-85.9c0-22.8 8.93-44.6 25-60.7 16.1-16.1 37.9-25 60.7-25zm-468 312h242v951h-242c-48.2 0-85.7-37.5-85.7-85.7v-780c0-48.2 37.5-85.7 85.7-85.7zm382 0h483v951h-483zm624 0h242c48.2 0 85.7 37.5 85.7 85.7v780c0 48.2-37.5 85.7-85.7 85.7h-242z" fill="currentColor"/></svg>
