<svg width="20" height="19" viewBox="0 0 20 19" fill="none" xmlns="http://www.w3.org/2000/svg">
<path d="M17.3976 4.40932H13.655V2.53797C13.655 2.02335 13.4491 1.55551 13.1029 1.21867C12.7661 0.872474 12.2982 0.666626 11.7836 0.666626H8.04092C7.01168 0.666626 6.16958 1.50873 6.16958 2.53797V4.40932H2.42689C1.39765 4.40932 0.555542 5.25142 0.555542 6.28066V16.5731C0.555542 17.6023 1.39765 18.4444 2.42689 18.4444H17.3976C18.4269 18.4444 19.269 17.6023 19.269 16.5731V6.28066C19.269 5.25142 18.4269 4.40932 17.3976 4.40932ZM8.04092 2.53797H11.7836V4.40932H8.04092V2.53797ZM8.97659 15.1696L8.04092 14.2339L10.8479 11.4269L8.04092 8.61984L8.97659 7.68417L12.7193 11.4269L8.97659 15.1696Z" fill="white"/>
</svg>
