<svg width="33" height="30" viewBox="0 0 33 30" fill="none" xmlns="http://www.w3.org/2000/svg">
<path d="M22.3183 16.8751L18.8887 20.3047L28.5831 29.9991L32.0127 26.5695L22.3183 16.8751Z" fill="#DDE2E5"/>
<path d="M24.8981 11.9438C28.0185 11.9438 30.5568 9.40551 30.5568 6.28516C30.5568 5.34744 30.2981 4.47439 29.8939 3.69834L25.5287 8.0636L23.1197 5.65462L27.485 1.28937C26.7089 0.885177 25.8359 0.626495 24.8981 0.626495C21.7778 0.626495 19.2395 3.16481 19.2395 6.28516C19.2395 6.94803 19.3688 7.57857 19.579 8.1606L16.588 11.1516L13.7101 8.27378L14.858 7.12588L12.5784 4.84624L16.0059 1.41871C14.1143 -0.472903 11.0425 -0.472903 9.15087 1.41871L3.42753 7.14204L5.70717 9.42168H1.1479L0 10.5696L5.72334 16.2929L6.87124 15.145V10.5696L9.15087 12.8492L10.2988 11.7013L13.1766 14.5791L1.1964 26.5594L4.62394 29.9869L23.0227 11.6043C23.6047 11.8145 24.2353 11.9438 24.8981 11.9438Z" fill="#DDE2E5"/>
</svg>
