<svg fill="none" viewBox="0 0 12.2 13.2" xmlns="http://www.w3.org/2000/svg"><path d="m4.9 0c-0.48 0-0.941 0.187-1.28 0.523-0.343 0.336-0.539 0.795-0.539 1.28v0.602h-2.46c-0.831-0.0322-0.831 1.23 0 1.2h0.623v7.8c0 0.48 0.195 0.939 0.537 1.28 0.343 0.336 0.805 0.523 1.29 0.523h6.11c0.48 0 0.941-0.187 1.28-0.523 0.343-0.336 0.539-0.795 0.539-1.28v-7.8h0.623c0.831 0.0322 0.831-1.23 0-1.2h-2.46v-0.602c0-0.48-0.195-0.939-0.537-1.28-0.343-0.336-0.805-0.523-1.29-0.523zm0 1.2h2.45c0.168 0 0.328 0.0659 0.443 0.18 0.116 0.114 0.18 0.264 0.18 0.42v0.602h-3.69v-0.602c0-0.156 0.0619-0.306 0.178-0.42 0.116-0.114 0.275-0.18 0.443-0.18zm-2.46 2.4c2.67-0.00673 4.96 0.00863 7.36 0v7.8c0 0.157-0.0619 0.306-0.178 0.42-0.116 0.114-0.275 0.18-0.443 0.18h-6.11c-0.168 0-0.328-0.066-0.443-0.18-6.51e-4 -1e-6 -0.0013-1e-6 -0.00195 0-0.116-0.114-0.178-0.263-0.178-0.42zm2.45 1.79c-0.331 0.00453-0.596 0.276-0.592 0.607v3.6c0 0.801 1.2 0.801 1.2 0v-3.6c0.00419-0.338-0.271-0.613-0.609-0.607zm2.45 0c-0.331 0.00453-0.596 0.276-0.592 0.607v3.6c0 0.801 1.2 0.801 1.2 0v-3.6c0.00419-0.338-0.271-0.613-0.609-0.607z"/></svg>
