<svg viewBox="0 0 1700 1405" xmlns="http://www.w3.org/2000/svg"><path d="m825 374 3.69 60.8-61.4-7.44c-224-28.5-419-125-585-288l-81.1-80.6-20.9 59.5c-44.2 133-16 273 76.2 367 49.1 52.1 38.1 59.5-46.7 28.5-29.5-9.92-55.3-17.4-57.7-13.6-8.6 8.68 20.9 122 44.2 166 31.9 62 97 123 168 159l60.2 28.5-71.2 1.24c-68.8 0-71.2 1.24-63.9 27.3 24.6 80.6 122 166 230 203l76.2 26-66.3 39.7c-98.3 57-214 89.3-329 91.8-55.3 1.24-101 6.21-101 9.93 0 12.4 150 81.8 237 109 262 80.6 572 45.9 806-91.8 166-98 332-293 409-481 41.8-100 83.5-284 83.5-372 0-57 3.68-64.5 72.5-133 40.5-39.7 78.6-83.1 86-95.5 12.3-23.6 11.1-23.6-51.6-2.48-104 37.2-119 32.2-67.6-23.6 38.1-39.7 83.5-112 83.5-133 0-3.72-18.4 2.48-39.3 13.6-22.1 12.4-71.2 31-108 42.2l-66.3 21.1-60.2-40.9c-33.2-22.3-79.8-47.1-104-54.6-62.6-17.4-158-14.9-215 4.96-154 55.8-251 200-240 357z" clip-rule="evenodd" fill="currentColor" fill-rule="evenodd"/></svg>
