<svg viewBox="0 0 1700 1893" xmlns="http://www.w3.org/2000/svg"><path d="m850 0c-259 0-472 212-472 472 0 259 212 471 472 471 259 0 472-212 472-471 0-259-212-472-472-472zm0 186c159 0 286 127 286 286 0 159-127 286-286 286-159 0-286-127-286-286 0-159 127-286 286-286zm-378 950c-125 0-245 49.8-334 138-88.4 88.4-138 208-138 333v189a92.9 92.9 0 1 0 186 0v-189c0-75.8 30.2-148 83.8-202 53.6-53.6 126-83.5 202-83.5h757c75.8 0 148 29.9 202 83.5 53.6 53.6 83.8 126 83.8 202v189a92.9 92.9 0 1 0 186 0v-189c0-125-49.5-245-138-333-88.4-88.4-208-138-333-138z" fill="currentColor"/></svg>
