<svg viewBox="0 0 1700 944" xmlns="http://www.w3.org/2000/svg"><path d="m933 940s30.7-3.32 46.4-19.8c14.4-15.1 13.9-43.5 13.9-43.5s-1.91-133 61.4-152c62.4-19.3 142 128 227 185 64.2 42.9 113 33.5 113 33.5l227-3.08s119-7.12 62.4-98c-4.66-7.45-32.8-67.3-169-190-142-129-123-108 48.1-330 104-136 146-218 133-254-12.4-33.8-89.2-24.9-89.2-24.9l-256 1.54s-19-2.51-33 5.67c-13.7 8.02-22.6 26.7-22.6 26.7s-40.4 105-94.4 194c-114 188-159 198-178 186-43.3-27.3-32.5-109-32.5-168 0-182 28.4-258-55.3-278-27.8-6.56-48.2-10.8-119-11.6-91.2-0.891-168 0.324-212 21.1-29.1 13.8-51.6 44.8-37.8 46.6 16.9 2.19 55.1 10 75.4 36.9 26.2 34.7 25.3 113 25.3 113s15 215-35.2 241c-34.4 18.3-81.6-19-183-190-52-87.4-91.2-184-91.2-184s-7.57-18.1-21.1-27.8c-16.4-11.7-39.2-15.4-39.2-15.4l-243 1.54s-36.5 0.971-49.9 16.4c-11.9 13.7-0.914 42.1-0.914 42.1s190 433 406 652c197 200 422 187 422 187z" clip-rule="evenodd" fill="currentColor" fill-rule="evenodd"/></svg>
